<mxfile host="app.diagrams.net" agent="Mozilla/5.0 (Windows NT 10.0; Win64; x64; rv:142.0) Gecko/20100101 Firefox/142.0" version="28.2.3">
  <diagram name="Page-1" id="Oap9Uj49-vAxEfMM_Ddv">
    <mxGraphModel dx="1295" dy="686" grid="1" gridSize="10" guides="1" tooltips="1" connect="1" arrows="1" fold="1" page="1" pageScale="1" pageWidth="850" pageHeight="1100" math="0" shadow="0">
      <root>
        <mxCell id="0" />
        <mxCell id="1" parent="0" />
        <mxCell id="5G9Hfgs1YEClRX-4D4DC-1" value="AWS VPC Private Subnet" style="rounded=1;whiteSpace=wrap;html=1;verticalAlign=top;container=0;" parent="1" vertex="1">
          <mxGeometry x="172" y="80" width="410" height="200" as="geometry" />
        </mxCell>
        <mxCell id="5G9Hfgs1YEClRX-4D4DC-7" value="&lt;h1 style=&quot;margin-top: 0px;&quot;&gt;MyGeotab API Adapter Infrastructure Diagram&lt;/h1&gt;" style="text;html=1;whiteSpace=wrap;overflow=hidden;rounded=0;align=center;" parent="1" vertex="1">
          <mxGeometry x="145" y="15" width="560" height="120" as="geometry" />
        </mxCell>
        <mxCell id="JU4nquK_jm7ar9zYCTRF-35" value="Logs and Metric sent to Grafana (Refer to Grafana Architecture Diagram)" style="text;html=1;align=center;verticalAlign=middle;whiteSpace=wrap;rounded=0;" vertex="1" parent="1">
          <mxGeometry x="261.99999999999994" y="350" width="150" height="30" as="geometry" />
        </mxCell>
        <mxCell id="JU4nquK_jm7ar9zYCTRF-52" value="" style="shape=image;verticalLabelPosition=bottom;labelBackgroundColor=default;verticalAlign=top;aspect=fixed;imageAspect=0;image=data:image/png,iVBORw0KGgoAAAANSUhEUgAAAgAAAAIMCAYAAACDuhSBAAAgAElEQVR4XuydB5gURfbAq6pnZifPopgT7M4GQIIi5oA5nxFOyaiAAqIgIKjoiiACKgqKShAkrCJ3nnpmvQM9s6KAhA2zC2Y5QHYn7aSu+lfvnf8zECZ07jff53fBqhd+r3fmdYX3MIIPEAACQCAPAruu6XoMccQXIhF9IgSK7/XO/eynPMTAFCAABDQigDXSC2qBABAwKAHWCwnN9k5jBZyZTBF1tLpBSAwJ+EG/LzMNzwklDeoamA0ELEUAEgBLhRucBQKFEUiMqCxPNYvPMIZO3J0kjIVakbKb2lTXripME8wGAkBAaQKQAChNGOQDARMQYAjh6MBOwylNzUAUuffmEkGIUYYf93t9t+N5a+ImcB9cAAKmJAAJgCnDCk4BAfkIsF49veGiHxfyn/XeOUklZAstcl3XZsHa1TnNg8FAAAioQgASAFUwgxIgYEwCzYM6lJF05m8UoU75eEAIoiIRHg7EO9+JV65M5SMD5gABIKAMAUgAlOEKUoGA4Qk0Dyy7mC/3L+P/FBfujLCGMXvv4uqvGguXBRKAABCQgwAkAHJQBBlAwEQEpP3+8MDKKpIRJ/E3fxm/I8jP/LZA/8DSza+ZCBe4AgQMS0DGP27DMgDDgQAQ+C8B1quXI+xYu4j/zz5KQGk9IGgXJgcW11QpIR9kAgEgkD0BSACyZwUjgYCpCbQe9nP+uBJReoHijmL8rP/sQ6/Dg1cnFNcFCoAAENgtAUgA4MEAAkAARYf3OFgMN72KGDpWLRwCZqs9SXo5XtnYrJZO0AMEgMD/CEACAE8DELA4Adbv2GCYRd/kq/MlqqMQ0Jf+NkUX4kc3bFNdNygEAhYnAAmAxR8AcN/aBKQf/2YcW40pPUw7EriRZXznFa9Y06CdDaAZCFiPACQA1os5eAwEWgk09elcgnFiNf+vR2iOhKBvqOA5o83itVs1twUMAAIWIQAJgEUCDW4CgV8TYEO7Hxluia7mB/7a64YMJAG6CQUYYg0CkABYI87gJRD4fwLxwT2OSGfC7+rqx/8X6wgK2dLkDM9ztT9AyIAAEFCWACQAyvIF6UBAVwT4sn8bgSTepwx11JVhvzKGYLRJpM5TedXAXXq1EewCAmYgAAmAGaIIPgCBLAi0FvkpWv8aL8VzdhbDNR3CEH4vsB89D88JJTU1BJQDARMTgATAxMEF14DALwSk8r6RvhXPMET7G4YKsT3nX7q5D/+S4ubDBwgAAbkJQAIgN1GQBwR0SCA+oHJaWhQn6NC0vZtkF+6FssGGixoYbBACkAAYJFBgJhDIl0BkUIdraDrzbL7ztZwn9Q5gGF/pX1b3opZ2gG4gYEYCkACYMargExD4L4HEdRUVyTT6jJ/49xkXCtnlcBV1dy1Yv8W4PoDlQEB/BCAB0F9MwCIgIAsBdl2FL5pmn1DKOsgiUEshmHzmbyOeBocCtQwC6DYbAUgAzBZR8AcI/JdApG/5XyliV5oGiIDnBJbUjTKNP+AIENCYACQAGgcA1AMBJQg0DSgbhkX0pBKytZIpnQcQse384mWb39bKBtALBMxEABIAM0UTfAECnEBrjX8htdbY+/57CiXZ6k8d0hmvXB2FYAMBIFAYAUgACuMHs4GArgiwqipbpH7FewxlTtKVYTIaI9jII95nakfLKBJEAQFLEoAEwJJhB6fNSqBpYOVEnBHvN6t/kl+EICowz2nuZWs/NLOf4BsQUJoAJABKEwb5QEAlAqzfscFmFluPEXWppFIzNQLB6zxL6o7F3FnNjADFQMDgBCABMHgAwXwg8AuB8IDyV5nILrIKEQEJg7zLa56xir/gJxCQmwAkAHITBXlAQAMCRq72ly8uRsj3gS5FFXjc+li+MmAeELAyAUgArBx98N0UBNjMLp7m9claTOlhpnAoBydsDE3yVNdPyWEKDAUCQOC/BCABgEcBCBicQKxv5d0ZJN5rcDfyM5+QiD8hluKVoe35CYBZQMC6BCABsG7swXMTEIhdU3Foxo7q+J1/jwncyc8FmzA58EzNPflNhllAwLoEIAGwbuzBcxMQiPQvf4rX+h9qAlfydoEgssPr8R6F562J5y0EJgIBCxKABMCCQQeXzUGADe1+ZDQWraeIOszhUf5e2BAb4Vkempu/BJgJBKxHABIA68UcPDYJgUjf4DyK8BCTuFOYG4Rs8Sdqy/BKJBYmCGYDAesQgATAOrEGT01EID64xxFiKhyCt///BZUy4ao21TUvmCjM4AoQUJQAJACK4gXhQEAZApE+5VMpZncoI92YUjFBf/cvrf+TMa0Hq4GA+gQgAVCfOWgEAgURYDcHi6I/4695DdyDChJkssmEkDTLsEP9z9btMJlr4A4QUIQAJACKYAWhQEA5As39OgxALAMlcHeDGA4DKvfcgWTzEYAEwHwxBY9MTqC5b/knCLHjTe5mXu5hwj70Lw2dktdkmAQELEYAEgCLBRzcNTaBpj6l3TEmnxvbC+WsJzwzEjP+suIVaxqU0wKSgYA5CEACYI44ghcWIdA0sHImzohjLeJuXm4KGH3HGFlDENuEHeQrgdk3OByOGl4oKJ2XQJgEBExKABIAkwYW3DIfAYYQDvet2IIQPcp83inrkXRAUES0FiPbBkbYepRBawIo8zFeHgorq1kb6bxI1CGJWKRjmtF2zGE7AqfpUYzggzGjxZiRYv4MtaGI/K+AFEE2RDkVQiPc4hSm+H3/8rrB2lgPWtUiAAmAWqRBDxAokEDz4LITUAp9XKAYmP5fAoQgKlJhI18x+JAXVPqQ/wR+FFi8ud5ogFjfEw5vLoqcTNL0RIxZDyqiTtIPfKF+MGw7r3jZ5rcLlQPz9UsAEgD9xgYsAwK/IdDcp2wywmgSYFGOABHIdibST/gVy48Jdb/rq7jiY1xVlVFOY+6SWVWVLVO3/OQYJhcLiF7MbeU/+Ap8BPSl/5n64zDmawPwMSUBSABMGVZwyowEmvt0eAvhzLlm9E23PhHURET0D4bY6z5v4DV+juBHLWzlS/r2SCx+CSOoN+/8eL4cb/jZ+GF3CH3ci2qezWYsjDEeAUgAjBczsNhiBFiv4AGJIuG8DKYLKEVOi7mvG3elGwaUsTXIYXuVibZXAks3rOFfoPxohnKfxIjK8kQTu56/6Q/UovCTQPA679K6bsp5CJK1JAAJgJb0QTcQ2A0BxhAJX1fWAzHhQpSmFxLCjuM//Pz3Bz56IsAPFv7ED8s9nxaLFrd5bt2XctrW3L/DRQyj8YKYOZ3/8Gv6Pc2Y7dzi6s3vyOkfyNIHAU0fLH0gACuAgPYEpB/9SJ+uJxOS7MWXm6/mTX4O1d4qsCBbAgSjTSJ1LAkcgBfjRzdsy3be78c19elwDsbiVF0VeiLkjcDS2gvz9Qnm6ZcAJAD6jQ1YZgECfG/3yHAsMYTgzPWU0UMs4LKpXWztR8Do64jZFvtSR7+KV65MZeNw+trgGXE7nsWbGR+TzXg1x0hbH17kPRov/3KTmnpBl/IEIAFQnjFoAAK/ISDd54/173QeZanh/E42P8VNBUBkPgIEkR0Y4eq9bRG0JoDx6Ex+uqC3ngnwBaoZxctrb9ezjWBb7gQgAcidGcwAAnkRYL1KAmEHGcx/FIbzJKAsLyEwyZAEBAGvFxF+2t+SXoxXNjZLSWC0b9lIStAD/JKdW+9OSdUVPUvrj4IrgXqPVG72QQKQGy8YDQRyJpAc1LlzKpMeQTHrx69weXIWABNMRIBE+ZG+JQISO4oM9zSSY8TlOtu3YP0/jWQz2Lp3ApAAwBMCBBQi0Dyg/EKB0vFG+6JXCAeINTgBflB1UXF1/XUGdwPM/xUBSADgcQACMhKQTvO39O90RRql7uA3xI+VUTSIAgLaEsAo7E+2HIxXfteirSGgXS4CkADIRRLkWJqA9MPf3LfiKoHQKspQR0vDAOfNS8CGLgk8U/+qeR20lmeQAFgr3uCtzASkEq3N0dhgLLAJfH+/vcziQRwQ0BkB9nhgeWikzowCc/IkAAlAnuBgmrUJsF5ICNvL+/ADXVX8mnSJtWmA95YhIKCGwJL6oGX8NbmjkACYPMDgnvwEpGptNkF8UKSsq/zSQSIQ0DcBu6P4SPeiz77Vt5VgXTYEIAHIhhKMAQKcQGuZVpSehjA+DoAAAasSIHbbtb7Fm5+zqv9m8hsSADNFU2e+7KrqWYzrdv7/M1Zc/dUunZmYlTnSPf50pmU2XOfLChcMMjsBhh8LVNfdbHY3reAfJABWiLJMPrJbjj6o+Wd0BBHpYRinjxTs5LBMBh1GKDpUxDiAkejHmHgpRl5+IM63N7VSfXEkkB183Hb+w7qDtx3dRqn4bxsj26ndvoOi1FaWdm4OLP9qq1bVx6QExl7/0728Oc9wXq7XJhNGEAMEDE4AfxpYXneCwZ0A8zkBSADgMfgDgejwHgdnwtHOmNCORBQ7MYI6MYQ78pKlxWrjkq7VY4HWIIprbJRtwsSxOSM6N/qq19QplRi01urvVzGIYfoAb8N7oNo+gz4goG8CJOpfXuvnPx78TwU+RiYACYCRoyeD7azX4a6IO3CsDYsnpDPsBITpifyH/kgZRCsrgqAmhMjHSMCfsBR+P5COfCBHgZKm/kcfR1hyDr/Xf6KyDoB0IGBcAg6Xq8S1YP0W43oAlksEIAGw2HPQen3NEexhY/ictM12jiDSk/jytsPoGAhBCUrx+4zZ37ER9IZ32cZ1ufjErqvwxZJ4CiPiSP7Wz3co4AMEgMCeCBQ5hEudi2peAULGJgAJgLHjl5X1rNdJ+4XtOy8miF3GG8+ercVSflaGyjmIkC0CQS+l7a6XipvX/guv5J3W9/BJDK68JJkRHzfEyoecjEAWEMiTAMHCzb5lNY/lOR2m6YQAJAA6CYTcZkRu7HIgiqZ6Y8quYBidbuVDbASTHxnGz4npoqVtnlv35S+sWd+gP4LIo/yQ3yC5+YM8IGBmAnY7me5eXDvBzD5awTdIAEwUZWk/P1HkuTJNWB8s4vOs/KO/p7ASjDYxZrvLxTI745g8gxBtZ6JHAFwBAqoQ4Ld9lvmX1fZXRRkoUYwAJACKoVVPcGJEZXlqFxrGsPQmS/dTT7NxNUnXECmcgTFuAMFyjQngd/hVwHM1NgLUF0gAEoACAWo1Xeo+19S38nKC6U18b/9s+DHTKhKgFwhYjwBGto/8yzefbD3PzeUxJAAGjGdz3+CJmAnP8Hvq5QY0H0wGAkDA4AR44a513qV13QzuhuXNhwTAgI9AtE/ZWBGjmQY0HUwGAkDABAQwI3X+6toKE7hiaRcgATBg+GN9K+/OIPFeA5oOJgMBIGAKAriRnwEoNYUrFnYCEgADBr+pX6cZmKXGGdB0MBkIAAETEOCHaDf6ltcfbQJXLO0CJAAGDD8/A8ALcOARBjQdTAYCQMAMBBj7PFAd6mEGV6zsAyQABox+uG/5IiheY8DAgclAwCQECMb/8i2rO90k7ljWDUgADBj65n4VK/gt9t4GNB1MBgJAwAQEMLa96l+2+RITuGJpFyABMGD4wwPKX2Uiu8iApoPJQAAImIEAJnMDy2phG9LgsYQEwIABjPYLrhIZ7mlA08FkIAAETECAIWFi8fKaB0zgiqVdgATAgOGHBMCAQQOTgYCJCDjsjr6uxRurTeSSJV2BBMCAYW/u0+EthDNQh9uAsQOTgYApCDjQiYFF9Z+YwhcLOwEJgAGDH+5b8RpD9EIDmg4mAwEgYHAChJC0NxEL4JXftRjcFcubDwmAAR+BcL+yl3gzoD8Z0HQwGQgAAaMTENCXgSX1xxrdDbAf2qEa8hmI9CtbSRm62pDGg9GWJkAISlBEfsSUbrTZycZWGJTXtcwITRilfyAe1xdijOb1ZulyIE/Khg8QxNRB6aR4AJfclhDhQBHhAwVCD0Aiasu7Zh7EFbaxdBAKdJ4xsqC4unZIgWJgug4IwAqADoKQqwnN/Ts8i2jmmlznwXggoDQBXiKW8R/4bxBGIYJwSGRoq2DHW2k6vVUItNnqnfvZT0rbsC/5rG/Qn/a4g/F0ogylWJAXtSlDmJZhLJRRkScK8NkrARvDVZ7qOuhFYoLnBBIAAwaRnwFYws8A9Deg6WCyyQjw/eCfRMrqMEPr7Ri/60qJ7+KVoe1GdZP1Kgk023EQ46IOmNFjCMkcKzLhGL5qEDCqT3LbLa3ioCLXxb4F6/8pt2yQpy4BSADU5S2Ltqb+FQv4Eur1sggDIUAgSwL8DbmWCOz1TBp9yJCrvjhdHMIrV0eznG7YYUzaKu13bGmYRk/iCc8piImncmc68u0E635/EhKxUdvZnuUbPzNsYMFwCz/ABg5+08DKmTgjjjWwC2C6QQgIBK/LYPJ8gLqfx8u+CBnEbMXNZL1O2i/u+/nUTIKdixE+j2FarrhSnSkgiOzwIvcZePmXm3RmGpiTJQHrZrBZAtLjsKY+nW7HOAVVuPQYHIPbhBmp43vibxAsvEf97g/0sGdvBKSsT4ejIgI7DyHxUkrJORhRlxHsLtRGRsj3THCd2mbx2q2FyoL56hOABEB95gVrDPcJXs8wXlCwIBAABAiKY2ZbhQXyupgmrxdXf9UIUAojwGZ28bSsEy/IoMzlfGXgEkRRcWES9T2b/4jU+9oWnYYf3bBN35aCdb8nAAmAAZ+JcJ+OlzGcftGApoPJOiDQeoiL4tfEItuKgM31Cp63Jq4Ds0xpArs5WBT52X4Rxpk+fMP1EkqR05SOIrzWjyjfDgiFzemfOb2CBMCAcQ0P7HQKy6TeN6DpYLJGBPiPPv/tIW8hkVX7MX0JvqjVD4R0wyDhsF+VxnQIL+R1ovoWKKyR2d72e90X84QyrbAmEC8TAUgAZAKpppjEdRUVySStUVMn6DImAYLJj4INLcG2oqdcC9ZvMaYX5rM6fG33SltRdFBGRDcwSvc3jYcYP+tfVteX/7DwyxPw0TsBSAD0HqHd2MdGVO4fbhJ3GNB0MFkFAv8pxoPewsz+hK+896u4qiqjglpQkQcBNrS7u7klOoAwfCtjYkUeIvQ3xeaYGnhm4136Mwws+j0BSAAM+ExI95Kb+1bErHLS2IAh0sZkfjebL/E/U+TEjzmfrq3VxgjQmg8BviVAwoPKLkQiGc3Tt7PzkaGnOYwJw4qra+bpySaw5Y8EIAEw6FMR6Vu2gb/ldTKo+WC2nAQICiFMHvOL4iLY25cTrDaymgeXnYBFfDcT2UXaWFC4Vl4jIGN34Cuci2peKVwaSFCKACQASpFVWC50BFQYsAHEC4z8k1/he8RdvfFVzJeDDGAymJgDgab+Rx9HWHISL7N8qSGrDhISE5jtFO+yjetycBuGqkgAEgAVYcupKty/8mFGxdFyygRZ+icg7e8zAb/ORHpfYHnoY/1bDBYWSiA1tMuxiZaWKkz5NULDlR8mW/0p8Xgj94coNH56ng8JgJ6jsxfbIv0qR1ImzjGo+WB2jgSka3z8XPULmYz7/jbPrfsyx+kw3AQE/rMiIFYxlrnYSO4wwfZuwOk+F64H6i9qkADoLyZZWdQ8oJwfGGKvZTUYBhmbACFvOAXH+KLFX31lbEfAejkIpK8NnhEnZAZfDDpeDnmqyLCRJwLP1A5XRRcoyZoAJABZo9LXwMSIyvJkkwgnvfUVFlmtkeryU4xvLl5e85asgkGY4Qm03gS6rmMvnMxM44lAiTEcsvcPLN+0zBi2WsNKSAAMGmdWVWVrrn82DFcBDRrAvZjNb4S1YDue4fdlpuE5oaT5PASP5CLAevVyNNs3jRaEVJXuywzzQ4F+6j4eugfKFf3C5UACUDhDzSQ096v4lN8Z7qGZAaBYdgIY2161O+03Q9U+2dGaWmDzoA5lKIUeRzhzrp4d5YdYN3q7uU7A49bH9GynVWyDBMDAkeYHAZ/kBwGHGdgFMP3/CZCfHXbbza7FG6sBChDIl0DT4PI/Cyn8MEX00HxlKD0PI7zYv7xusNJ6QP6+CUACsG9Guh3RNKBsGBbRk7o1EAzLjgAm//C7vf35Kekfs5sAo4DAngmwvkF/jBVNZjgzkicCgh5ZMUZ6F1fXrtSjbVayCRIAA0c7NaDr8S1i/BMDu2Bp01tr9jM0xZ+uvxevRKKlYYDzshOQ6gckYy1L9FgxFBOy04edXfGSdd/L7jgIzJoAJABZo9LfQLaopzP6zx/DlFK7/qwDi/ZGgJdKTVEkXA+nouE5UZKA9B3R8u6PVaJIx0n9oJXUlbts/A7fCjgPOgfmTk6uGZAAyEVSIznRAeXrRJF10Ug9qM2HAEFNVCRXtqmuXZXPdJgDBHIlEO3f6XxeQGgRZfSQXOcqOZ5g4WbfsprHlNQBsvdMABIAgz8dzX3K5yDMRhrcDcuYL93t92H3FXAVyjIh142ju6p6FpPQD3N5MelrdWMUvxrIUt6uxSvWNOjGJgsZAgmAwYMd71txdRpROExjgDhKV/zE4EH92lStbjKAuWCiSQk09+swAGH6GKLUpwcXpaZWnurac2ArQP1oQAKgPnNZNbJewQOiDrzNeE1CZMWga2HSYT/C8L3u6rrJ8CWn61BZxjipkmg6TF+klHXQg9OYsRv81aGFerDFSjZAAmCCaDf1L/uKdwo72gSumM4FIqCkIJJ+7uW1fzGdc+CQoQlI1wUjGC9lDP1Je0fILt41sAK6BqobCUgA1OWtiDY4B6AI1sKFSv3Qke0q79KNbxYuDCQAAfkJtPYU6NNpPC8lfL/WtwQYIQuLl9beIL+XIHFPBCABMMGzEe/X6ao0S8Ebpq5iSX5GSLw4sDz0sa7MAmOAwG4IhPuVX84wXqLluQCp5TW1oZMDi+qhtolKTykkACqBVlKNtJQXRcJ2XvXLoaQekJ0dAULIT8hTdK7vyfUbspsBo4CA9gQiQ7p2YvH43/iqQJl21ghr/Mtqjse8y5l2NlhHMyQAJol1c7+yNxFD55nEHcO6wQv87EBuZ0/f/HUbDesEGG5ZAk19OrfBJLWS16g8WysIfCvgJr4VACXOVQgAJAAqQFZDBW8MNJI3Bpqjhi7QsQcCvMCPy+U62zFv/RfACAgYlQDr1dMbcWx7i6HMSdr4QH72F+Ny/HjNTm30W0crJAAmiTXr0+GoMM5sNYk7BnSDRO3Ydb572doPDWg8mAwEfkOgtcz4P354izJ2mhZoCMHzfEvroNOpwvAhAVAYsJrim/uWf8mvnHdTUyfoQrzAOknZELvItbzuH8ADCJiFAOtVEggX2f+qxXaAdCCQ9y84vri6YY1ZeOrRD0gA9BiVPG2K9Sm/J4NZVZ7TYVoeBP7T0Q8PDFTXLc1jOkwBAromwHr1ckQc6xcwRPurbahUIdBbXavZWQS1/dVCHyQAWlBXSCfrd2wwyiJ1UBVQIcC7EWtjuMpTXXevehpBExBQl4BUKyDct9NkhFJ3qasZIQG7LvQuW/+G2nqtog8SAJNFOty3w4faHd4xGcx9uIMRWepbXjsQyvtaK+5W9TbcJ3g9xsKT/LqxTS0GAsHrPEvqjoVrgcoQhwRAGa6aSY0M7DSCZlLQXlPhCBCM/+VNdj0Hr1yZUlgViAcCuiEgtRUWUWalqgWDGB4AW2zKPAKQACjDVTOp4WvL22Ib/oFSatfMCJMr5veUv7f5/Md55372k8ldBfeAwB8IhAd1PA2L6bd46WCnOnjIVv9+YiWeE0qqo886WiABMGGsI30rXuTLdJeZ0DXNXZJO/AsU93Q/W/OR5saAAUBAIwJNg8v/LGRYtWr9A5hjTKB64yyN3DWtWkgATBja5gHlFyKRvWZC1zR3iV/3G+FZHpqruSFgABDQmEB0UNk4MY1mqGEGJmSnL5EuxSsbm9XQZxUdkACYMNK8vScJ9y+v5zfUSkzonmYuYUaW+pfXDtDMAFAMBHRGoKlvxXSM6Xg1zGJMmFi8vOYBNXRZRQckACaNdHhgxXgm0ukmdU99twhq8NvIMfjp2oj6ykEjENAvgXC/yocYEscobSHffvvBm+zSHg7eykcaEgD5WOpKEhscPCBK8bd8j65IV4YZ0Bje3S9NMrZTPMs3fmZA88FkIKAoAalOQKR/+dMMsUGKKuLCHYz0cy2rXa60HqvIhwTAxJHmPb4XM8wGmthFVVxjNuGO4kU101RRBkqAgAEJsKoqWyT07MsM0wsVNZ8IawLP1BynqA4LCYcEwMTBDg/tXomT4Y2qndQ1IUuC+H3/RN2ZeCUSTegeuAQEZCPAhnZ3R1LhfzARnSib0N0IciPW07409K6SOqwiGxIAk0c6PLjsZf4HeanJ3VTGPUIi/hTpjKs3f62MApAKBMxFgN1y9EHhXelPEKJHKeUZPwvwkm9J7eVKybeSXEgATB7t5sFlJ/B3149N7qYi7jGBDS9eFHpCEeEgFAiYlEC0X6euIsl8wJMAjxIuSp0C7YR0dD5dW6uEfCvJhATAAtGODC5/j1Jt+nobFS9D+L3AYr70jxHvrQQfIAAEciGwa1DllTYm/kWpxmSCIMz2Pl1zSy42wdg/EoAEwAJPhVS6k7H0exZwVR4XCYojZusWWLyZ11KADxAAAvkQiA1QsD05Rk1+h/8wPG9NPB/bYM5/CEACYJEnoXlQxTu8cz301s4i3oINjfMurH8wi6EwBAgAgT0QkK4HRgdVrKCM9lICkmATBnkX1jyjhGyryIQEwCKRjg3q1IOi1CdKLcmZBSPfX9zktfm78TeLtFl8Aj+AgFYEWK/DXWGv513+8tFDbhv4YcAPfItrT5VbrpXkQQJgoWhHBvMmQQyaBO0t5NTpObPNk2tXW+ixAFeBgKIEWm7o0j5Fk1/yFsIBuRURp6uz78n1G+SWaxV5kABYJdLcz6ah3UuFTGtdAKgOuLu4M/xs4Jm6PhZ6JMBVIKAKgfjgiqvTjK6UW5lA4DBgIUwhASiEngHnhodUPswy4mgDmq6syYRE/WlnJV6y7ntlFYH0QgmwAV0Pa7IlynkTmnKChPBtk0kAACAASURBVHIk4gpmYwfvSy4WxTTDOPrrcZgKSUbEMKKs2S6QZi7r3ynEvsU28Vs/CXzNt4J+3Jdc+PfZEWi6ruxpzNDg7EZnParJH205FK/8riXrGTDw/wlAAmCxh6GpT+c2gjNVy7cCDrCY63t1l9l5p7F50GlMT88EuzlYlI57uiZxpgcT0z14rfnOiJByvpTsVc1OnhhyfXWI2Pg/rM6RFmqTBNcFkok6vDwUVs0OEyhiM7t4IjWpNYyKFbK6Y8MDAvPrlsoq0yLCIAGwSKB/7WbL9ZV90iwDDTX+C4WfVv7WH0lUwFuEtn8MvJSsPYIyJ9jTsbMyGJ+FCTqR16/Q8XYVaWQYfWpn6DNu7yc+wfspHB7d+zPEbux6TCwT/0jWuBL0hn9BSNkeBNr+aSimHRIAxdDqW3D4uuBr3EL4o+EQeL3/wd6n6xfrO2LmtI4NLQlEse0CnEaXUdTaSKbYuJ6SmIDY+6KdrfJhz1voyXVr+Rcszy/h82sCzYODo3mBrYflosK7dWY8Ij0ULwptl0umVeRAAmCVSP/OT3Zbh6MizeIGVZdTdciaf3ms98yvOwYq/qkXHGlpP5K2X4RTYn9M2EWyvg2q58Y+NRGCv2MifZXXrf27f1e3t6GP/X+QMYZIdGj5as7mtH1CzHKAwNBwD5TtzpLW/4ZBApAzMvNMaL4heCs/lDPLPB7l7gkj5CK+f/h67jNhRq4EIqO7dhJiLTdmGO3LCyy3yXW+occTtEtAwgsORJ6zNW1eZfXuks2DOpQJjvQ6KiKXHHHFhPzLN7/udDlkWUkGJABWivbvVwF6ISHiL5eadpxgRQxYwO/65tX3tKLvavnMVlXZotUrrkZUHMEQhaItHLy0MiCKaJGDuBa5FqzfolYs9KYnfl35mAymD8lhl9QgiPjatHM//Nm3csizigxIAKwS6T342XRT5xIitnzB38hkL9Khd7SYsrN8Tzes0rudRrRP6g0fFZuuY0QYw6vAtTeiD0rbLP1oYYTfySA02/9U/etW24Zi0gtIIPgvzvkkOVgTjMd550MJ71xYQgKQCy2Tjo0ML/8zS9HnTOrebt3CGJYMlYg369XLEW27dhgW6V2U4gOV0GFKmRjVYUZmex2HPoPnrv5NrQJT+vtfp8JDyysJpV/yEuXOwv0kn/oX1FlyNTNfdpAA5EvOZPNiQ8reEBk732Ru7dEdF7afa5+/+R2r+Ku0n9LBrsQNldekMb2PbymVKK3PtPKlswICeRIl8WOep2t/MK2fv3Ks5cayO9MZNqVQX6UVFU8aHQy3AbInCQlA9qxMO1L68o4NLf+WX8M61LRO/soxjIQPfPOhiYhcsW4aGjwPE/wAFtkxcsm0uhze6CbF34qrKfZNKZ63psHMPFpvhSSQVM8/WKifzOboH3hi07JC5VhlPiQAVon0XvyMDC09kzH8T6ug4PkOnPyXIdjS8i2/5D4HM3qODOJAxG4ISHfcKWNLxP0897V5YO1Ws0JqHtbhIkzTrxbqH2G42rugvm+hcqwyHxIAq0R6bwnAsPKnGKNDrYCCv6lu8j5ZfzQUaMk/2mxRT2f4o+/vEAgab9Y7/PnTUWYmXxHg7anFJzx2+2T8eM1OZbRoKzU8rOxlXiTg0kKswIjs8D5Vd5DVDlTmywwSgHzJmWSedGgr0mYdb3hC9zOJS/twgwzxz6tbYA1f5feyeWjZCRixJVxyufzSQeI+CfAzAoyg+/zbj3ncbIWFpBtJNrFlY6EHAhnCJwbm1X+yT5YwAEECYPGHIHFj5SUpmvm7FTDwK1fbvScddiQevDphBX/l9FGq0x9G4UkCwRMppTY5ZYOs3Anwcyw1yI1v8j1Sszr32fqdwRPMyTzBnFSIhcxmuzcwt6aqEBlWmQsJgFUivQc/ozeVLefLuH2sgIF/MUwOPF5zjxV8ldPH1rLRUXGFVQtGyclSTlmEV9WlhCzxJeg4s5x8Z8N7emPidyG+CnBQvqxaC3zNhQJf2fCDBCAbSiYdIxVriQiRbVboByCdqvbs7zgS379hm0nDqYhb/I3sYowxX/K3yhaRIhgVFcp/8LazDB7Kt7ZeVFSRSsIjw0tHMhHPyVedgFDczQLF0Jlx3wQhAdg3I9OOiIzkBYAy1igAxH/E/up7ov5q0wZTZsf46X4cHll5j5DJ3M3fxuB7Qma+SogTiLDQnUCj8dO1ESXkqyWz9VxS23Wb+fpG3vUkqIv2KJ7V+LlaNhtVD/xhGzVyMtjdfFP5s/wK1zUyiNK9CELcF3rnrn9D94bqwEDplH/k4x/nIyz204E5YEJOBMhW5LIN8M/aJJXYNeynZXhF3zQV877PzxP+UTzhz3sVwbDgcjQcEoAcgZlluNSkJbKimi+Hm39plyD8nWdnfTurd2DL5tnld/vbIpv4Gq9S3yOb8TBGfwT42QBRZMI0P/NONuoyeGtxshHlX/IDp13yIcy3/J71PllnibNN+fD5ZQ4kAIXQM/Dc8OiOp6FE6j0Du5C16QwJUwJP1BZ0sjhrZQYeGKuqOJRuo28zxDoa2A0w/f+/3dlnPpejF35o89dGhNJ0c/A8kkFv5mU7QV/7Hw+1y2uuhSZBAmChYP/a1fioymmZdGaC2d2XTkpnkCtY/MRXjWb3tRD/WkZ2aZ8WE7w3Qv77roXoh7nKEOCFr7Yju9DbqNcFw8ODHyCGTs6Hjq+N82A49Lt3cpAA5PNkmWBOdGRwPaWoswlc2asLmPG6/09A3f+9QWLDjukYE2Jv8V4Qh5n9ebCif1IVQYbEMb65DY8Zzf/IGF6mPJFfmXKK7ecVP775baP5rKa9kACoSVsnuvj1vyMjtmZDLgvmihAzOAy0N2ZNN5V2F7DwBkO0ba5sYbzBCGD8tI+w4XhOKGkky5uHl33BiwPl3GiK2PA47+z6B43kq9q2QgKgNnEd6IvdHLxJFNFcHZiiqAnSYShPJnAEPwjFSx3D5/cEIrd37cTiLe8h0fwHQSH6/yVA0Ee+VOAqI/1NhG8qvxxh+recY8jQUv8ToQE5z7PQBEgALBTsX1wNjwy+xPfV/mR21wkSVnkfrz3L7H7m4198TI8jaLrpQ14F8vB85sMc4xIgmPzAMs7zfU+ul1rwGuITGRl8nt8M6JWLsYTgdd459d1ymWO1sZAAWCzi0vWayKjy7bz6n+mb/wgM3+iZW/+UxUK8T3fZiMr9o4j+iy/7d9jnYBhgVgK7nA7PBY5Z6z41goPSahWOxr7KpSgVb6Wc8pzW1Yd7r0wZwUctbIQEQAvqGupM3nR0l6SQWKehCaqolpb/WcZ9KH/L+bcqCg2ipLX8szP8D0TZiQYxGcxUigBBTQzjCwKPGqNzXnRExT8pFs/MBQf2eI72TV+3MZc5VhoLCYCVos19jYwoH8EwNdxp4JzDxNCH/B7wKTnPM/GE1uJPL1S/yEusXmxiN8G1XAgwEkFu28X+mfqvHBge0eEKhNMv5OIeQuQK/2Pm6JGQm9/ZjYYEIDtOphnVPCq4AlPU2zQO7ckRhibwBGC66f3MwcHoyLJHKGK35DAFhlqAgNQ8J83sl+v9yhzrhYTIweX1PIFtn21YiIDHex+tn5nteKuNgwTAYhGP3lz+Pb/vfajZ3cZuWPr7dYwjozpcw1j6WbPHHfzLjwDfMkuI2H5VYPbm1/KToM6s8MiK8bxHRdaJPf+Bm++bExqqjnXG0wIJgPFilrfFbPixwYgQrs9bgFEmMtLIl/1KjWKu0nYm7qqoSIXpp4gxv9K6QL5xCUiH5orswsX2BzfzipD6/IQfLG9LvmHfUcaKsrGQYH4TaDbcBNoTK0gAsnmKTDImOqpiMEXi0yZxZ49u8GW/R72z6m81u5/Z+MduDvojAvmU3/qoyGY8jLE4AX4wsMjmPKPowQ3r9Uqi+ebgcxijP2djn9QIjBcDOiKbsVYcAwmAhaIeuTk4j2E0xOwuE4G3/p0FrX8ZQjh6a/lfGKVXmjLmhMS4X9v5P9sQRjt4bYvt/HzLb6588cZGh/Dl7SMpYUchiopNyUFmp3jp4B/S+7lPaVO1dqvMomUR1zKq/Ow0olmtUhCCqEdEbqNVP5QFVBZCIAHIApJZhoRHBz9DIjrOLP7szg9pL9OTCOzPK53FzexnNr61VnzExq74yL/AW3jpis8IRR9Qh20tdjjqPG1d36Bjzg/jM6sy2XD4ZYy0GhJzF7UXUmKnNGHdWJodw+V34wkSlEH+I8g6H0On8h9OKcHS1UdKbPnLTB1P+oLZGEZZIFg8Z01DNmOtNgYSAItEnN//tse8zWHeAMhpZpcZJe8EZteda2Yfs/GN3c77PaQjG/jSvy+b8XoZ01q/AZEPMGaviE70nn+n/wule9o3TehcQjLxs5mIz+FV8s6ChOD/U6bPfKkjzsJzV0f18nz8Ykf4tuAE/jIzLRu7sIOd5ZvRsCqbsVYbAwmARSIevb1TV5ZMrDW7uxiT8Xz/3/LXfsJjgq9jyi4wQrz5knOSEvQKFmwve+LsVfx4zU6t7JYqZaLxXbpFWexyREkvnkBVamWLHvTyPfQ33fHApUonYbn6ym7rcFRcTG3JpjIgtjsGemduXpKrDiuMhwTAClHmPkbHlA1ijC4yu7vY4ezmnb7R9JUO9xbH6G2VAxlNL9Z/rIXNAkYLMoeiJf6xdTv0aG9y7NFdUjgtJQLX8n8sebOEIWGWf1bdGL3FJzI6+CFC7KR92WVDZJJrVv2UfY2z4r+HBMAiUY+OKX2Uv92MMrO7/GHe5pnVcAj/T75NaM1PdEaPg9lPTRt5sRTd9nrg5WffcGE8zf5Q/XtGiZK0MhCbUHkuy2SGE8ou5m+evH6OhT5YuMb3cN0KPXkcGVs2ineyfHSfNhE21/dQ44h9jrPgAEgALBL0yG3l/0JUPNXk7r7gm9Vwlcl93Kt70dHBFfzkuy4rPUo//MyG7g3MCH1s5BixOzsclYiLN2aIeBO/WRAwsi/Z206iyOs+0Xeffurqszu6HxJPNn3HzzXxoyN7/jCEl/pnQVvg3RGCBCD7vwDDjpTeXqLjypqMdiAsV+B8OXms+6GGh3KdZ5bxzRPLTrAl6UfZ7Iuq6jMmNfzk6TAjvfFnw6dpWuc2ws7UbQjRUWb/22rlgVGdN4V78JsB4Wz4qDEmOja4ilHWcx+6/uZ7uMGcV2ELhAwJQIEAjTC95b4u7TO7Yo1GsLUQGwUXOsU9tYHvC1rzEx0T/Cd/+8+pW5qSpPjhvjQlZIa30yFT8ODVCSV1aSlbqk7n+FEcx68vjOTJl1tLWxTXjfGL3odCV+plmy0yrvRmfhtg9t785geD3/Y+VH+e4mwMqAASAAMGLVeToxNKL2Bp9Hqu84w0XjpJ7k6xgFULfkTvqDyfJdNv6CVmAhI+FXyOIUVV+q0oJzcraWsgmko/ylstXya3bD3JYzY80T899IAebGLTg4fH/82+2euqF8Ef+WaGTtaDvXqzARIAvUVEAXsS40puSVP8iAKidSQSf+h7yJrtf6XCKPHbytbwJk/HaB8Qvlcs0Ine6Q1zeblW/r1svU9iXOUllImzxRy61hmJklSrATvR6XpZbYuPLfuYsz5hTwz5j9xX3ocauhiJsVq2QgKgFmkN9UTGljyOGB6uoQmKq2aEX1Waqb+rSoo7zhVEbu9wDcqkNO/0x3/w19uctt7OKbW1avitZx3s+cNdyU+KqkSCxu7rkJqe/dijbYQ0eNuSY/DttRGt7Q+PD96ORbbHFQkBky3uB+tLtLZTj/ohAdBjVGS2KTq+9B1G0dkyi9WVOEzsg7wzap7RlVEqGcPju57Ht7NK6narhneSe8Vd6v8zHgYlmH8NKD0ueEaKoaUUMdM1pCGILfQ82HiDls+dpLv5rg5lJJGq26MdAtnum15/oNZ26lE/JAB6jIrMNsXGBvkemfm+gH6NyevyHovvW/elzOh0Ly59e9npCZG+q6WhBKPF7ov6D8m1Nr+WNqupW7otYNvZ8qRer2cWwsKO7Zc6Z9a8UogMOebuLQnm/R4SnhkNLjn0mE0GJABmi+jv/GEzu3ji/45FdHc1TEbu/O0z444zrxUPAEZv5/f+qXb3/m1IeMA5s+4OvZwKl/Gxkl1UeFz5DQJij/GzGln1spfdAAUE8r+97/jfXietrwZGJpRO5rcBJu3JRW+PY4tw75W/6RSpAA7DiYQEwHAhy81gNqnrMdFE9IvcZhlrNH+IN3hnNmi6BK4FsdZCKOnw1/wHxa6FfhvGVa4ZoXu10G1UnfFJlSexRPoFnpAfbFQf/mA35pX2Zmhbaa95fPBEwthHe0wA2tjb4ju06zGh11hDAqDXyMhkV+QOfkAsrf0BMZnc2a0YfvjsWe+Mhj5K6tCj7JZxwbsziGnyAyy9+btm1k3UIxe928Qe6H5kfOeulyjC3fRuazb28SV2KhLb6f5ptR9kM16JMa3FzsaXbeNFmXbb2tnm95S4Jq3fooRuI8uEBMDI0cvC9pbxwXv4j0RVFkMNO8SGbHe7ZtTeZ1gH8jCcraqyxd9cvpVSelge0wuawgurPOKdXj+6ICEWnyxtzbXsbHlWpPRSM6DgBwLXurc0HodX8oV4jT48AVjGEO27O/UOt6urlWpSZBsCSACyJWXQcfxwTDW/J36tQc3PymwHwf2KHggtz2qwSQa1Fnei6hd3wgiv8MwIXQt7/oU/SGxod3usuHkpPxz458KlaS+B2YQh/vvrFmhlSfL2yj4plt7t9wCzs9P8Uxvf18o2veqFBECvkZHJrtjtQV4ghh0rkzhdihEc9pPd99Xscf9Pl0YXaFTs9rKn+d7/4ALF5DSdYPKlu73/VLjqlxO2vQ5mvZAQLymbr3Ys5fPgf5Iw4d04o7hcqwOB7P7K/ePN6W2769SIMT7f+0DoLSX8NrJMSACMHL192C5dP3I0Jb4VEfWY2E3k9bsOxndu4Pt/1viw53s5ol988RNvetxGLY/5F8W/PW2Ke+AJa75RS6dV9EiVHFsmBueIlBm+ZS0R8DTP/aE7tIodvxWz234YXuLvhKd9uUkru/SqFxIAvUamALvY9Apf4md6SwaJvFMZLi5AlO6nCrxNu2t6vc9KS9KJuyovSafTf1crONIhL1pkP9tXVbNaLZ1W0yMlAZGJpYswRQON7Hvr36O/qFSrhDx8Z8mpQkZ45zdXLXkvAO+00ClW+o7I9hmCBCBbUgYYJ70Ztqz/4mYxQybs6TSsAdzIyUR+A2CDd5q1rgCGJwaXYMb65wSqgMF2ZJvpfKB2fAEiYGoWBKQzAZH9m17EDF2UxXDdDhGIMMd9f90orQxsrgqeaEviOylGQcboJ75D8Dg8KrRdK3v0rBcSAD1HJwfbwhPLL+e9V2YixoI5TDPBUPyS74HQ5SZwJCsXWpf/167dzt/J/VlNKHCQ1EjFE2vtAZ8sUBRMz4JA6+2An1v+sbfmNlmI0XRIa2dOwVaBp27+WlNDQPk+CUACsE9E+h4Qvr+8kkTFx/g9WFPX+t9TFBjCD/unhfhWhzU+4UkdT8OZ5HtqeMurvKVYkeN4790b16mhD3T8h0D4wfK2uIl9jERaalgmhBcHmqptcSDDslPRcEgAVIQtp6rW5cK2zWMEhu81U2nRXBnx+8fDPdMan8h1nlHHt9zB6zowdeo62Ama4ZzacLtRWRnZ7uTUo7tk4i0f8U6CbiP6IdXfd7ctLsGj1/xoRPutYjMkAAaMdHhSxSlYpAsQo5UGNF9WkzG2X+C9v+ZNWYXqWFjkjrLVPO5nKG0iP1uxzdORX+nqFworrQvk754AT/au48neQqPysQvCdOeUOn4eCT56JQAJgF4jsxu7pP3fxFfr7qWiOG53d10N5Ipspnp9gTI88YuQbAJ1LEjqMR9f69qlxooPQ9oWddFxGFQ1LXZn2ULK6HWqKpVLGSFhbyU7ApJIuYDKLwcSAPmZKiIxMrlrJ5KKL+elX7sqosCAQlu7AP7b78bz1qQNaH7OJrfcW352Jim+k/PEHCfwL4X1nqkNx/BVAJ5nwkdLAlLSF1vv/Ix3fOykpR356rYTdqtzSuOj+c6HecoSgARAWb6ySI/fXXYtr7A93+wFfXKGRcjPvvvq9895nkEnRO7ee8tT2dyy2/7sq6p9XjZ5IKggAs2Tyk6wUfqBMVf9cMg7JVQByWRBj4BikyEBUAxt4YKlhi/JVdVT0qIIB7F2g5Nh9LV/SkO7wkkbQ0JsUtnf+QrQJcpay7+w60KVWjZ1UdY/Y0oPTwo+hCkbY0TrqYNcErin/lUj2m52myEB0GmEY9MrDqXRzPN8EfYUnZqoA7PIJt/UekMujeYDL35XWSO/H94+n7nZzsF2MthbVb842/EwTh0C7Knu7ui34fX8AKjhrgYygl7z39dwsTqkQEsuBCAByIWWSmPTU8pOT6XoCn4F6GCVVBpSjYDJJ+776k80pPE5Gi2Vd45HMs18GVixv1l+desn90/FR1rlTEWOIdB8eOsZkLTyZ0DkdpQgJLoPxO14Nb7v5JYN8gojoNiXSWFmWXd2+O7g9QLCT/KlXpt1KWTnOe8+9g/v5IZzshtt7FHxSZUniSz9oZJe2G285G8VlPxVknGhssOTSl81Yqlg/mV2l2tKw9RC/Yf58hKABEBengVJC08qv0NA4hQl3/IKMlBnk/kKwN/dk+v/pDOzFDEnNrl0KE2jpxQR/l+hXi/piG+v36ykDpBdGIHWAkGpli/56iB/sTbShzR476svg4Y8+ooZJAA6iAcv40ti95bOYiLSrIGGDjDkYQJ+2Xdf6LI8JhpuSrSqjD8f9FbFDMf4I9/k0MmKyQfBshHgBwKfwYgNkE2gSoKYy3aq/47aD1RSB2qyIAAJQBaQlBwiFfeJbfpiMf/xv1ZJPeaUbaEEYFJwBUOst3JxJLfwK5WzlZMPkuUiwB7scFS8OVOrRkEouWyW5AgC7xJYpV2XQDl9MYssSAA0jCR7vqc3vumbvzKKztPQDMOqZoS87KuyzArAu4iKpysVLI/LU4onftWolHyQKy+BSFVwPqb0BnmlKiuN/9j86N7ceARcMVWWcy7SIQHIhZaMY1srfG1wvo6Q8nXdZTRbV6IslQDcXVLD4VcoEwCy2Ts51FEZ2SBVCQK8Y2ClLZzZZLTzQkzAZ/nuaVilBBOQmTsBSAByZ1bwDGnZP775ixd4eU+4G1sATYattAIQbOZ3wP0F4NrjVBvGM5xV0PVPCbZKyozfW/IyPwx4qZI65JZNCJvjvmcLnHWSG2ye8iAByBNcvtOkNr7RQ5ufx4xenq8MmPcfAlZJANiins7Y1m9alIq7jdguct5Tx1ej4GMkAun7g2ckk3S1kWzmtSa2uO9pLDGSzWa2FRIAFaPLeiEh1ql0GWLsGhXVmlaVVRKA6IweB6PYTsX6qlOf7QD/2Lodpn1QTOxYrKrkS36LqJuRXGSC72jf3es2Gslms9oKCYBKkWW8glu8qmQB/09jtvZUiVMuavjtSUscAmSzuh8Sa971Qy5ssh1LBP5GNgneyLLlpbdxiSklt2YyaJbe7NqrPQKa4J3UON1QNpvUWEgAVAps8r6Se9IiqlJJnSXUQAIgQ5gxWeG9JwQrUjKg1EJEZGaXA4VE/DsqUrsW+vPSSfA/vHdbo4JnXnxUnAQJgAqwI5Mregs4/Rw/sAO8ZeTdegtgkvmvAfJGMIfEflJmBcBmQ7c674R+7TI+lqqL4lUiX2HMOAeK+TmAFtfhR+6HB69OqA4LFP6GAPwgKfxApKa0Pz7D8Gr+4+9SWJXlxPNeAK94JjUa6hR0PkFSMgFAXlc3720b1+VjF8zRB4HItNI/4xR7Th/WZGcFI44zfZNqVmc3GkYpRQASAKXIcrnxx0uPYD+zT3ihn0MUVGNZ0QJC77vuaTzN7ACUSgAIIhnX3SEnxkg0O0Mz+8eWdPG0fB3fyRuIFRnFT4bwfbwewN1GsdesdkICoFBkpf7d8e27PuA//oY6oasQDoXECpu8d9d3Uki4bsS2JgDb5N8C4N1kvnHf3XiUbhwFQ/ImEJ1S+jaizDCdMTEib3ruDl2Qt8MwURYCkADIgvGPQmJTShbyH3848a8Q31axBG3z3tV4sJIq9CBbqQSA81vP+XXVg49gQ2EE4lNLb6Mie7AwKerNJoR8774rdLh6GkHT7ghAAqDAcxG9v7w/EjNLFBANIn9FgH+JpN13hhxmh9KaAPxb/hUAJPAE4A5IAMzw/EQe6NoJpyMbjOSL55CD9sc3fPSzkWw2m62QAMgcUalGt72FfiYi6pVZNIjbDQFPF7sfX1YbMTMc/ky1JS2Z7bL7CAmA7Ei1FBifEvyGMnqEljbkorvIJZxhH1v/Xi5zYKy8BCABkJFna4OfWscnXGRnGcWCqL0QEP1F5YFbNtebGZLUO6Kl9ssIb/8q72oHJACmemyi95U+ywtkG6amAyNspO/OLY+bKggGcwYSABkDFpla+gRm7EYZRYKofRAowkXn2e/c/LbZQcWnlnxCGTpeTj8ZZh/zL+CT5JQJsrQjEL2/dCw/CDhTOwty08wwftJ3Z8NNuc2C0XISgARAJprpaeXnpFnmLSj2IxPQLMUINjzUNaFhfpbDDTssNqX9Yn51aqCcDvA//lc8d5m/joKczPQsi7+AnMlfQP6pZxt/bVvrNd67zH+NV8/xgARAhuhI93Cj38fXY0qhy5UMPHMRwRsC3e+7I3RnLnOMODY5vWxSOiNOltN2zu5Fzu4KOWWCLO0IsKdKAi070M9Uuh9jhA9BzZ4JjW14HQreIgU+WhCABEAG6pH7S5/kmfcwGUSBiFwJEPysd2JDn1ynGW185IHya7CY4Xu88n14JcW3PBMbz5dPIkjSmkB0amkdPwdQprUd2er3+MgReFTou2zHwzh5CUACUCDPluklZ/P7/m/D0n+BIPOczpA19rFj00uOYxn0WZ6YdjuNJwDrROh9KQAAIABJREFUeAIAharkhKqxrMj9wb9hRi/X2Izs1QuOC7wTat7MfgKMlJMAJAAF0JRO/UcbnBv4Hxws/RfAsbCpJOyZGCo2+zKitLwb24maCmP1h9lNvA5AG5llgjgNCSQeKJuZoeJYDU3ISbUNkzHOiSFjtTPOyUN9D4YEoID4RKaVV2GWuacAETBVBgIZGwkWjw81yCBK1yJi95f8wDdLZe0r4TmSBHC/UFjXjoNxWROITSsdyjsDPpX1BI0H8h+ghZ47Gm/Q2AzLqocEIM/QN80IljoydAM/cOPMUwRMk4mAHTuuLppY81eZxOlWTPT+4AqEaG9ZDSyCboCy8tRYWGRaxVmYpf+hsRlZqycYfeae2Cjr9daslcNA6E+f7zMQm1byd/42dkm+82GefAQYEqb6JtbfJZ9EfUqKTQ8OZ5TKWziF2AZ4b69bqk+PwapcCUgdSGmYfZPrPK3GE4JE12FkP1iF0iYCsAKQB/fEQ5WXZFKpv+cxFaYoQABj/KpnQoPpkzE2O9gxFqMbZUWIbbO8E+rGyCoThGlGgD3f0xtr+MZQpbE9AU8pHv5Vo2bQLKwYEoAcg8/462Zsetl6hMSOOU6F4QoR4KfZf3KPazzU9AcBeSWg2MzSn3i1twNlQ0nIu97xoZ6yyQNBmhJoTQAajZUAiMW8nPeN5i7nrelDsRflkADkGJmWmcHrRZEuyHEaDFeYgMdNOvH7xJsUVqO5+Pj0kpW8JPDVchnCl2BjrqPJ/viiUFIumSBHOwKQAGjH3oiaIQHIIWrStb+WLc463nEL+ljnwE2NoYzgUb7xDXPU0KWljuRDwX7pNJV1z77IxvspjDV/PwUt46aWbkgA1CJtDj2QAOQQx+iMsvGIidNzmAJDVSLQWtZ2vPnL2rKXKnwtdeltvPCUSz605GHv7aHb5JMHkrQi0JoAbDHYFkAAtgC0el4gAciSvFTvP7YtvhVR2jbLKTBMTQIENXnGNrbl5wBENdVqoSs+I/g8X4XqJaPuOu/tjRUyygNRGhGABEAj8AZVCwlAloGLzuCtNpFxWm1m6ZaphmGH7XjPrXWylsvVI6DkrLIr02lR1roHpAif4r6l4UM9+gs2ZU+gNQHYarAVAD+sAGQfYXlHQgKQBU9p7z/+taOR3wA4OIvhMEQjAgzZJvvG15m+MiNb1NMZ2/HdNsSoXy7U/Ivgac/4xuvlkgdytCEACYA23I2qFRKALCIXmVk6knf7M/0BsyxQ6HsIRuu94xq76ttIeaxLzCyZm2HoJnmkISQQEnWWCYfiy2oNdYdcLv/NIgcSALNEUh0/IAHYB2f+1k8SD5bWUURL1QkJaCmEgNsvBPEw8/cFSMyrLGfNyc1y9n5nGE/0jm18oBD+MFdbArsWdSt27Gjepa0VuWkXfM5yJ9QByA2aTKMhAdgHyNiDpZfzpda/ycQbxChMAAtorHvMlocUVqML8fEHS17mjV8uldGYne5OQgmvCQDNgWSEqqaolvld2tOmiKGq6kECoOYT8ltdkADsg33iwXarRIR7ahci0JwLAYLx+67bGk/LZY5Rx0ZmVfYkYnKVnPbbbPieolsbJ8spE2SpR4A9cdQx8Rj5Qj2NhWtyF5MyfENDqHBJICFXApAA7IVY+KnySiGS3pwrVBivHQHC2+XRIscRnptrf9DOCvU0xx4OrkFUPFY2jYSEkd3WwSr8ZOOmE0GRORVnkWTKMN0AJWwk4CtxDVm/RScILWUGJAB7CXfywdIZGUTHWeqJMIGzWBBuc48OPWwCV/bpQmwW36IS5d2iwgT/1T2mUbZyw/t0AgbIRiDzUNlVSZb5i2wCVRDk9uGj8LBGw3QwVAGJaiogAdgDavZ5d3v8X7u+5Y1XDlItGqBIHgJE+MIzOtRdHmH6lxJ9qP27/A/5dFktxehPnjFboOOlrFCVF9byUOkQfmB5nvKa5NPgdvsPxzet+14+iSApWwKQAOyBVObR8iuSmfQL2YKEcfoiIHrtHfzD6mr0ZZUy1sTmlBxHMuxTXh5Ytr9nTMh3rsMO7Ip7f/SzMlaDVCUIxB5qL53fmKSEbKVk8r/VA/jf6g6l5IPcPROQ7QvDbJBjD5fwtx9m+h7zZovb//whUzxjGgz1RVhILFpmlSyjjPUtRMbv5/I2yy+7btlyudnbLMvJTGtZSjwHSvokndlxjt7isEIJbyU55isbEoDdkGNPlQQSMfxvvpTmyBcszNOWAMGo0XnrljL+xcKvypv/w5/ZIxMxVsOdlbFJEC8QhPFo5+jGR8xP0BwetswKfkiZeJJhvMFop2f0FuivolHAIAHYDfiWJ7q1oy3htXwFIKBRXECtDASYvegC7801b8ogyhAiEg8HR4tIlPXwI0Ek5XSK5+HhW981BASLGxl7pOQnI51bYgjXecdAIyqtHltIAPZAPjKnsqeNpt+g/FKZVsEBvYURwLxFsPvWhisKk2Kc2VLVytgjwX/yhohnyGq1gHa5BdspeEQ9XImVFay8wqQywPHvvzZUKWeChY9ct4ZOlpcESMuWACQAeyEVf7SiN6apZ+Ust5ptYGBc4QT422vGeQBuj/uFvitcmjEkSJXgcDS2TkTUJ6fFfEtlq9O138l42Jof5ZQLsuQjIB0GRRlmrG6YBL/iuaVRzmqW8gG1gCRIAPYR5MTsdqNEih+1wLNgUheFyZ5bQ6bvEPjr4LXM5lfBqPxXwQQB1YhtHWd7rrVGkSWj/UHEZrcbhih+0mB2L/HcumWgwWw2jbmQAGQRyuTs0rsylN6XxVAYojMC/CT7D66T92uHj1uT1plpipnDtwJwy+ySlbxPwFVyK+GrKiFmR2e5RzR8K7dskFcYgdgj7aX7/0MKk6LubEbww95RjbepqxW0/UIAEoAsnwW+vHY/EtnELIfDMB0RYMQ22DuqfrGOTFLclNb94B+/+QAx1kVuZfzq1lYccJ7nHLy5Xm7ZIC9/Avz8xxqEZCwLnb8pWc9kAu9AeTN0oMwamMwDIQHIAWj00dJH+K2yW3KYAkN1QEBAqLZo1JZOVrtr3LKEd4bbFfuUX7WW/5oVJtvtiF7iGLWFy4eP1gTYa8GiRD0LG+7qMq/amd7PdU5x368M1cJY63jLpR8SgBxISkurqcdLp2dE6A+QAzZdDMU2cg1ftl6hC2NUNKL1NgtKv8XPBNjlVksIiVJC+3hGQMlgudnmKi81u/3xaYY+yXWeLsYL+Cvi917mGgANgdSOByQAeRBPzml/Z4ahKXlMhSmaEcDr3Tc3drNiVbuWx4LX8aXhBXKWCv4ljIQgxg/JzvIc3H0i7r0ypVl4La44Oqd0LGZ0pnExkB1YQJfxJP1D4/pgPMshAcgzZjzjHikSNFuJL9U8TYJp+yJAHJd7Rta+tK9hZvz3Sj+vvObC5xmH0N8q/Rf09ozwM0qv8PMeF+vNrlzs4WdLYjab/XL78Lp3cpkHY/MnAAlA/uxQdG75QIGmF/IkgG8zw0f/BFpXAY612lmAX+ISn93+NobQg0rFSaoaSAl7yH1imyn81kVcKT0g97cE2KqezsTGb7fzbR6v0dnwZyhJBdoLtpXUiSQkAAVyzjxecmWa4mp++AYqBhbIUo3phAg3uEaEFqqhS486ko+1v4NvX01V0ja+LfC1yOyTPCPqqq2abCnJ9/eyY4+3v5R3vHhZTZ1K6uLPT8JpZxfgoVB+WknOkmxIAGQgHH08eJ6A2F/NkIHLgEPvIn50H3RUOe69Oqp3Q5WyL/ZYyU2E4dk8abUppUOSKxBUiwVhiqOi33P4zKqMkrqykc2e7+WIb//yBt7jQ1oqPwgzthUJtr+4bqxbYeSzIbHHSxchSgdlw8BAY5psTs8ZRUM2rDeQzYYzFRIAmUKWnH90F5qJvURF1E4mkSBGMQK8OuBIa1UH/D3KxPySi1AGPyeK8pYM3l3IMCHfM4oXYjdb4L5O/QJCkSVdDnTEozdmRHYTYujgP9iIyWvu9vhKfFEoqdgjp5Dg1qRmx+e8ARBqo5AKzcTyH6cfsBA4xXXT2q2aGWFyxZAAyBjg8N/L25Jv0n/FDJ0uo1gQJTMBQnDc2dbHVwHWfS+zaEOJi84r60Yy9BVG6WFqGM6XdkVMybtEoH+z+4QXlezRwJ4/3BXfVXQ+ybCrEWZX8XM6zr35iG3Cbe4bQ7J2UlSDaeKpkovFNHtFDV2a6MBorbvjUSfhM1cnNNFvcqWQAMgcYPZ5d3vyk6Y5IqPDZBYN4mQkwDB51juioY+MIg0pij3V/ZC4uGsJbyF7jpoOSNcH+Y/yeiaQ1ZjZ/un24A/wwJqd+drQWqNjwdGdRTFxDuO+EEpP5028PNnKEwhZ5RzecFa24/UyLvZY+8XcFnPX0sdoPj8UOFQvzM1kByQACkUzNrf9CMLII0rvsypkviXEMptwvndY6C1LOLsXJ1vbCM8tGysQOkWJgkHZ8uXXwLYwjD7nb+NvUMzW7W2e3YbtmRZ0BEWsnYBZN55MnM339g/KVtfvx/GiRh+4bmo4Nd/5WsyTqv/Ft4g/cd3FWuhXU6dNEPoX3RhapqZOK+iCBEDBKEfmV5xFUqnnuYr9FVQDovMkIDW2cR6Q7IJ7f9eSpwhTTUs90f54EZFqngSUmsqxLJwhCD/gGtFoqF4fsSf56X/RPKf/9xYm/rcadTrI8XhI/eYswglDsiQACUCWoPIdxp7velhyR3Qp789+Zr4yYJ6CBATbVM+w+rsU1GAo0XwLy536tPlufp9/jJarAWpCkw6budoK3XDv0HY19RaqK/5k6Qt8H+WKQuUYZz6v43FT9x4YQ8VJuWIGCYBcJPcip3WJdX7wdoGye63ypaoCVllUEExSThvpBm8Wv8UZmdexExYTT/CrcqfJAlq/QjYLPscVzv61tfo18Y+WsWXBwxNhtsVqW4w2AVcVDWu810ix0rOtkACoGJ3UM3yJNcGXWEXrLbGqiDlnVbw40EfOYaHToGjNb9FJB+ti88oHCDQzmTJ2ZM5gdTyh9RAiExa6Pe5b8YD1MR2bulvTYk+0n8yvNE4ymt2F2isl7Bm7p7vvhvUbCpUF86EQkOrPAHu/whffmHqQ39uFU62q09+zQiYId3iHhqbpyCTdmMIYv2u+4ItBvNhMFX9uD9GNYfkaQtCPyOa40XN9rSGr50k3jVo++3krL+t8aL4IjDyPX+N93zm08XQjF2/SC39YAdAoEvGngr0YFWdz9X8sTKKRTVZWK9UgJzbX8VB5bC9J0pIunlg8OpIwNsqIPz78rT/Gbws87O7smIlPrY0Y9XmPz6vozcSU5Vpb/zpeWHD82T20VjpgDZ8CCEACUAC8QqfuWtSt2JFqnk4wGgJdBQulKcv8de5hxx0Ph4z2zrL1DXRt5CqUSd/CE4ETZSGvoBDpBDnG4tIi9/734f5rflRQleKipW2ZlnmlnzJGj1NcmY4VEIy/cbZJVcINnsKCBAlAYfxkmc0WlpwaT+OnEKIdZREIQvIngIX7PcNCd+YvwFozY4vKe+BUZiDDuDffIjhAT97zL7eP+TLxQmcnxwojv/H/mmlsEb/6l7TG1b99PUsCFsbwszuz9jUO/v2eCUACoJOnQ9pnzTz1xXiRiHfuq2ypTkw2pRlSuVrG2LmuYV+vMqWDCjnFVlXZko3V5zIxfS2j6BJelEeb2vSY7OCJ9DJRcC303bDZVAfFWt/+55d+hqjYXaEwGkssIdtcR3lL8fnGO8SpF9CQAOglEv+1o2VJl/YoGZ7KA3MNbAtoFByB3wv32wx3L1wjWn9Qy3+ohPTSdsfhFnxOBqNzMcYn8euvDsXs4/EiIn5FdKBX3AcJbxmxqU82bGILg3/CmcxL2Yy1zBiMJriHbp1uGX9ldhQSAJmByiUutqTkOCFJZ/IkoKdcMkFO9gQEjF53DNl6MZw0zp7ZnkZKZwZi6xIdnSzZRRTFzoiwTiJlB2IkHIQRbctr9ruy1cL38zO8qFYdEtCnCOPP3dj5ERq8+Uuzx+k/e//t1nBOx2TLyhrj8E+uI4R2Zk36lI4hJABKEy5QfuKZskvEZHo6DxScDyiQZc7TBWG8+/qGmTnPgwk5EZAKZfEfcJ4HwGdPBFoWlQ1i6fQiIPRHAhiT61xDGoFNHg8HJAB5QFN7irSkKi4q75fJpCbwb8lKtfVbVR9/20wXCegsfH3j+1ZlAH5rT2DX37oVF+0M1/BDlnk3O9LeC+UsEBD+yjFkS1ezrwIpQRASACWoKiRTelMSF7W/MkXZHfx9CZYCFeL8W7Fkh6sYn4R7N4RUUQdKgMDvCMQXtn+UH00dBWD2TABj25muIaHVwCg3ApAA5MZLF6Ol/cDk0+UXMJS5gzcDMVQLU10AzNEI3imurihwME8CPvo5x6kwHAgURCBZfXQXFouvsVrN/1yh8a/EJZ4hWwbmOs/q4yEBMPgTwJ7ucGxcTA4XEL2Wbw+4De6Obs3HBL/nPEQ4Dw4b6TZEpjNMWvFLLDzqPcbwKaZzTmaHpCqPRRVFh5il3oPMePYoDhIAtUgrrEfaJ3Q1hwejDLuRIlausDpLiseILHNe3zgA9hotGX7VnY4vKh2HRHGG6ooNqpBfN73Bdf2WhQY1XxOzIQHQBLtySqXtAfRM2WlJmulLKbuaa9pPOW0WlCygR9yDt462oOfgsooEWpf+4/FP+dJ/kYpqDa2KV6N8y3P9lvMN7YTKxkMCoDJwNdW1dnFb9NmFmOK+vPvpxbBFIA99hm33eq4PVckjDaQAgd8SYK8Fi1p+oJ/yioZdgE32BKRbOy37+w9sc8XapuxnWXskJAAWiT/78HBXst51Nsqk/kQR5qVaTdDWVcvY2Wy3uQeGHtbSBNBtTgLJxe1niiIba07vlPVKcNj6FfUPLVdWi3mkQwJgnlhm7Yl0uCj+XMmxOEnPIgyfxeu2n8orDnqyFgADET90xFsG4KGu67YsABxAQC4CiaUlF6MUfZmv1hG5ZFpKDiZ/cV/X2MtSPhfgLCQABcAzy9TW9q71TT1Ikp3AED0eU3Q8//ppD70I9h5h/g1NmcCGuAZ+/bRZngXwQzsCbHnnkpZM9HN+51+bRkrauS6fZgHvcg3Y0hYqS2aHFBKA7DhZbhR7s4sH/TtdkWLJykwGdySIliFCD8MId4duhf97HKSVABGzkZ6BX8+13EMCDstGQNqia6m1fYgY6iabUIsKcgnsWDzw6y8t6n5ObkMCkBMuGJxeVDopzcTJQOK3BOw2fJd9wJapwAUI5EMg9nS7p/mX8eB85sKc3xIghIxxDmqcBVz2TQASgH0zghG/ItB6mLDOtoky1A7A/C4JECAJgGcidwKJRSW38ut+8IOVO7rdzyD4ZffALZfJJc7MciABMHN0FfItvqR9L75P+bxC4o0tViCzXP0bx8IepLHDqJb1mWXtr86k2Qo49CcncbLdPbjxQDklmlUWJABmjazCfiUWt1vFv7R6KqzGmOIx+purLNMXn/xdizEdAKvVIMCWtj8tKbK3+N+RUw19VtLhcgcOx73XfW8ln/PxFRKAfKjBHBR9rlNXWyq2hh8IFADHbggQ/InLKVyKe4e2Ax8g8HsC7Plgx5Z45l/8/4dKnQo8HgTbL3UOrH9FAdGmEgkJgKnCqa4zicXtn+J9B4aqq9U42gjhXQR9wkX4ilCDcawGS5Um0PJst3YoHX6Xd/I8UmldVpVvR8Ik+6CGKVb1P1u/IQHIlhSM+wOB8KrytrbvMpsRpW0Bzx4IYLTT7rD1sV8TegsYAYGW57u0R+nIKpZhRwEN5QgQJDzlHNhwo3IazCEZEgBzxFEzL5LLSvqIIoXSm3uJAK8VIAqY3GXr2zgdOglq9qhqrlgq9JMQY6sYgzd/RYOBySuuI468Fp+5OqqoHhMIhwTABEHU2oX48vYv8pp4cO1mn4Egf3cVof64d2PzPofCAFMRkJb9MW1axc/MtDOVY3pzhuDZrj5bxvBEW9SbaXq0BxIAPUbFYDbFny09golsA2bUbzDTVTeXIbSJCu7evj6bNqquHBRqQiC5rHNnkUVe58oP08QACygVBNIsimSou38IrifnEG9IAHKABUP3TCC2vOQmTCmUw83iIeE9BBJ82ISifltnw5ZAFsAMPKSluuIsgtIv8G2ygIHd0Lnp/MaNV+gLh21zDxMkALkzgxm7ISB1GExUt+f7m+x0AJQlAWmv0k6ug6uCWfIy2LDM8tIBGczmU0odBjPdEObykr8Z/tY/1d2v3xSMqzKGMFpnRkICoLOAGNmcxAuV5Sie+IIXNoHWwlkHEv9EMRvk7bv1zaynwEDdE0g/1+5ukaIq6KipTKgwIv8iDs+Iot5ffaWMBmtIhQTAGnFWzcvYc+2GYRE9qZpCsygS8MrMQfbh/jPrdpjFJSv6wd6v8CW+Ts1niP3Ziv4r7jNGPxOGJhf12ToHym0XThsSgMIZgoTfEYhXt/sbb2t6OYDJkQAh2xC13eruW/dcjjNhuA4IJJ/v3JmJ0b9Qysp1YI6pTCCIpCkR5yWdbe5qc8XaJlM5p6EzkABoCN+sqpteObJNUdi2jt93PsKsPirpl4DRa46Aazi+ePPXSuoB2fIRSFa378fPvzwJ21/yMZUk8QOzlAr4r8SG73Re3Vgvr3SQBgkAPAOKEEj/tfwcMZl6E7qc5YeXf/HFBBuaYSvZ/0F83Jp4flJgltIE2NslgfhO+gimaJDSuqwknxfPakEiXopcRQ85r6yps5LvavoKCYCatC2mK7m8/UwRs7EWc1tmd8l3DobvFPo0LIM9T5nRFiguvTJ4XkakC3hNf1jpKpDlL9MxId/YCF1o89qewBdBIy2ZsO5RDCQAShO2sHzGejnSz3/6IT8N3d3CGORy/XOnw3Ebvqr+PbkEgpz8CEgH/ZLfpR7EmA6BU/75Mfz1LP62H6fs/9q7Dvgqquw9M++9FHoRQRAISAdRio2iWFA6IigiXV2s6Oqubd1VrKtiw95pIooUQZoiLAICIkWQLlICKBKVTpKXvJn/d3DiP4SUmTvlzcw78/vNL4Hccs537tz73XaO/FlYkceEr90xn4mudUyNlsAEwChSnE4IgcxpiHwWPbBKUjnsqRCABTLJivZVshp6XO63g0LJ8uMyAlmT63SXcrVXsN+f5nLVwapOUTJCkjYzokjTpTqV5/E2V3zMywQgPrgnVK05k87qpMZyZ/F5APvMLsvyQk0LP5bab9tC+0rlkopCQJvcoFF2TvQlXO/rxCiZQ4AO8mmKtB3OwpaF5NBSTUtektR300ae6ZvD0YnUTACcQJXLPAWBnClpj+bmaCMYGrsR0BbLStLzyddum8kdqt3YShId8sv9XXpElbThqqRG7K/BjyUqv8py7AdNCpcPyTGM7xIi7ygxRdV+h1OrP+AU9I+IqmTkKPKW1FLJW6QyVbYgMh+5v+bHYwgwAfCYQYIqDrkKjk5K+1zVtC5B1TGeeuFD3q4q0uupFUPvyx052qBVW2grW5XK3PHbbbKm3I+LaKdbLS8o+bFfnyurkfZJ129bHhSdElkPJgCJbH2XddfmXlQp+/DPK0EG6rhcdcJUp8jS0ZgcGhdKTX4zudum9QmjuE2Knhj4t/9264mBX1Kr2lRsYIoJS+FHIn1/eiIwCiW4IkwAErwBuK3+0Un1z41I0cWqJpVxu+5Eqy8kSYjLII9NLhueyFeqirc+Oa9KypRvlFXlPh74i8BK0Ran9Em/FFtNsUT7loKqLxOAoFrWw3plfVq/m6xFPwMJwBjFj9MIkBvVmCzNSVLC40Jp5ebwiev/R/z4pNoX4e75LYqqXof2mOq0LfxaPj7UA5FKoXOxvZTuVx1Y7lMRYALArSIuCGR9knaXJmuj4lJ5AldKd64lTf4iFJKmh2qkzJQv2Px7osFBW1E5h/b1yw3Jw2Q11jzR9BfRNyIp14av2zFZJC/n8S4CTAC8a5vAS4bZ16togHcGXlGPKkgHujRVXowT7jNTU8vMl7ptWIflXc2j4loSS1t6Zmrmrym4wx/rH9KkTjjRn2SpwATKLCvSuyl9dg1LIJUTRlUmAAljau8pisOAoejk2tOx9NrVe9IlokRKBrReEJJiCyJlkubj3MBPfkZB+1+HMtJvOy/PkuVeiir1wqBfzs/6xEN2RZI3JdWt3Jq3jeKBvvN1MgFwHmOuoRgE6NR11s7f5mHe2YaB8hoC8j5s06yUtdAqWdZWJddMXur1LQNt5tl1c3IOXZEbk7uHZKWjqqrJXkPVL/IoipKdFFYvknvuWuMXmVlOcwgwATCHF6d2AAHt20aVo3uyFiOOemMHiucibUKAPLpJsrxVUuQf1Fx5k5akbgzJmCH2CG2R5W3ZNlVjuBhtdr0zszOlllpMbaXIsVYQDjEntGqGC+CExSIAb5N/T+mzk8/pBLidMAEIsHH9pNrxL86qKR9Tv4HTFY6s5ifDQVYQgxhcve7E4cJ0nCnYLSWpu/A/u+WwvEdOKp2eFMraI+KcCKtDkUP7MsqUz00643iu1gCdVX1Fy22gKUoDrBiBLKpVfAaVb8RVZPmzpGt2XhPUMyG+MYTDgjIBcBhgLt44Atpn9ZpkqTmLMM+sbDwXp/QDAiAJxzRZ+tWIrDgbUgFXF8vwQT0jaNmfRlGwqnN68gVyuy1H7C+dS/QSAkwAvGQNlkXKmV6nY26O+iVDwQgwAu4jAOJ1SCuddEFK5y1b3K+da3QbASYAbiPO9RWLQO60egNz1JxxDBMjwAi4iwCuhWohLdQnfM32qe7WzLXFCwEmAPFCnustFIHsKbUnI2xwb4aHEWAE3EUgHJZHRHrufMzdWrm2eCLABCCe6HPdJyGgafWSo9NjGbi6VZahYQQYAfcQwMHKz1N77riaQ0q7h7kXamIC4AUrsAwnEMj6vHYXLUeaxXAwAoyAewjg0N+WpNLKBSI3NdyTkmtyAgEmAE6gymUKIZA1vfY7Wkz6m1A7YTn/AAAgAElEQVRmzsQIMAICCCgZckRum9J9+48CmTmLzxFgAuBzAwZFfFz9UrJmpO2VVHbkEhSbsh7eRkAJKYfh6a+D3IU9/XnbUs5JxwTAOWy5ZBMIZH/RuJl6/PgPJrJwUkaAERBEANf9ojj13y3Sc8c8wSI4WwAQYAIQACMGQYXojLRbYqr2VhB0YR0YAS8jQC6dY5FIv1Jdt03yspwsm/MIMAFwHmOuwQACmZ/XGSPF1MEGknISRoARsIAAgjvdk9Jr+8sWiuCsAUGACUBADOl3NbJn1NmK63/1/a4Hy88IeBqBcPip1G4//dvTMrJwriHABMA1qLmiohBAVLcq0VjOryrCuTFKjAAj4AwCCNj0emq3XcM5wI8z+PqxVO5w/Wi1gMmszUrrmZWrfRYwtVgdRsAzCGgh6bXUrrvu4sHfMybxhCBMADxhhsQWInN63RGSHHs0sVFg7RkBZxCQZe2t5G7pt/Pg7wy+fi6VCYCfrRcQ2TNnpX2E+PH9AqIOq8EIeAYBRQo9m9R9+0M8+HvGJJ4ShAmAp8yRmMLgCuDqmKS1SEztWWtGwH4EKLJfLCY/WKrnzufsL51LDAoCTACCYkmf6gEPgHJ0Zu3DiABYxqcqsNiMgKcQwD3/mKoot6Z23fGepwRjYTyHABMAz5kksQTS5tWtlZUV25VYWrO2jIBDCISkP8JSpF+ky7YvHaqBiw0QAkwAAmRMP6qSM6tOx1xN5c7Kj8ZjmT2FgKaE1qWWLd1Lbv/Ddk8JxsJ4FgEmAJ41TWIIljm79o2yqr2fGNqyloyAMwjgjv8nKS0r3CRXW3fMmRq41CAiwAQgiFb1kU6xL9IezMlR/+sjkVlURsAzCNB+f0iSHla6pj/HJ/09YxbfCMIEwDemCqagOXNrvxCLafcGUzvWihFwDgFNkf8Ia7zf7xzCwS+ZCUDwbexpDaOzao9TJW2gp4Vk4RgBjyGgydJKKVThutSr1u3wmGgsjo8QYALgI2MFUdSsubXmSqp0VRB1Y50YAScQUDR5fKRi7Ba5zZ5MJ8rnMhMHASYAiWNrT2qaObvWd2iErT0pHAvFCHgIAUVSjsCn/9+Sr9r5iYfEYlF8jAATAB8bLwiiR+fWWo8ogE2DoAvrwAg4hYAsKZuklFLXJl+2cYNTdXC5iYcAE4DEs7mnNM6eXWurJkn1PSUUC8MIeAgBRcGS/2mn3Sq3XnXcQ2KxKAFAgAlAAIzoZxWy5qbtkFQ1zc86sOyMgHMIaItSuuy+xLnyueRERoAJQCJb3wO6Z31Ray8OAVb3gCgsAiPgPQRk6auUTukdvScYSxQEBJgABMGKPtYha07afklSq/hYBRadEXASgS9TOqfzLRknEU7gspkAJLDxvaB61hdp+7AFUNULsrAMjIDXEJAV5TOc+u/lNblYnmAgwAQgGHb0rRZZX9baji2AOr5VgAVnBBxEQJOVj1Kv2tnfwSq46ARGgAlAAhvfC6qfuAYo8TVAL9iCZfAeAiEl9Erkyh13e08yligICDABCIIVfaxD5rxaK2RVOs/HKrDojIBzCIRD96VcvuN55yrgkhMZASYAiWx9D+ie9WXNryVNvtgDorAIjIDnEJClSL/kq3762HOCsUCBQIAJQCDM6F8lsufVmq6pUg//asCSMwLOIZCshNvLHbcvca4GLjmREWACkMjW94DuWV/VehuHAId5QBQWgRHwHALJKUmnyxdvy/CcYCxQIBBgAhAIM/pXicwFdR+Tc3Mf8a8GLDkj4BgCu1OuTK/lWOlccMIjwAQg4ZtAfAGILqh9uxrTXo+vFFw7I+A9BGRZmp58RfrV3pOMJQoKAkwAgmJJn+qhLazdKztHm+pT8VlsRsAxBDQp/Fhqx+0jHKuAC054BJgAJHwTiC8A2qLGLbOzj62KrxRcOyPgQQQioR4pHXZ87kHJWKSAIMAEICCG9KsaWkbDsjk/ZB5SVYnbol+NyHLbjoCiSFq0atnqZZpu2Gd74VwgI6AjwJ0uN4W4I5C1IO0XxAOoFndBWABGwCMIKLK0Ieny9GYeEYfFCCgCTAACalg/qZW1gJ0BnWIvWdmlSmr/cETKikXD3UNybjeskbTklRI/tWxxWUMhuADuwC6AxRHknEYQYAJgBCVO4ygCWQvgC0BjXwB5IGuyNCmlXHiY3Hr7ofzAZy5rlBY6fry7KkvdFE3pAIKQ5KhhuPD4IaBI3VMuTZ8ZPwG45kRAgAlAIljZ4zpG59e8DUcA3vC4mI6Lp0nyH5GkyN/D7beNL6kyOjsh/ZBzZY6cC0KgdJFiapWS8vDf/YGAIqnHIpdJVWR5T6Y/JGYp/YoAEwC/Wi5AckeX17tQPR5dFiCVTKsiS8rUnKql7xA59KVpkpLzbb3z1WisvRyLtUUI2TY4U8GEwLQVvJFBVpRpyR12XuMNaViKICPABCDI1vWJbtrKVqVyDmccRljgkE9EtlFMZb+cFB6e3G7bJBsLlbKWNGyoadltQjlSO02R2miq2sjO8rks5xAIR5IGGVkFck4CLjlREGACkCiW9rie0YW11qmadLbHxbRNPEVRorKsvRauoD0pN08/YFvBRRR0eGWD01KPqS1jcuwcRVWBs9wMhwqbqiqfI3AaezPln1j+b1b6DLnKliNm8nFaRkAEASYAIqhxHtsRyFqY9oakqbfZXrAHC6Ql3qRI6H65zU/b4imepo0IR7+b1FDKyj5bVXOa4+pZU1mT6kiyUhvEoFw8ZUvUunEOZELqpbsGJKr+rLe7CDABcBdvrq0IBLIXnXW9FsuZGGSAFEVeHZHle+WLd37tdT21dbUqSlnJtaWcnNrZqpQWimm1VVmurWnq6YokVcBqTUXMViuoklLa67r4Sb6QknRV5JJtX/pJZpbVvwgwAfCv7QIlubb0nBrZ0QN7AqWUrgyCuvwYUiJPhtr99CF+x1GH4Dya1ioirTlUIVtWKyjHpQqymlteVLuYJo+QVK2taH7f51OkHcnt0+ujjcR8rwsr4AsEmAD4wkyJIWT24tobtJjWJDDahqTtmC0/G2l34weyPCI3MHo5pMjRDU2rhTOOrZGkBPUKGQ7dn9Jux0iH4OViGYFTEGACwI3CMwhkf33mMxDmAc8IJCiIpijfJCvhl6Q226cFbcYvCInhbDnL63TEtsNceDwEd0qcB9tDmeGk0jXlCzb/njhas6bxRoAJQLwtwPX/hYC2qFbbqKYu8SMkONWfo0naFEmJvJjUdvt3ftTBKzLHvjnz0dxcaYRX5HFDDk2R309pv/tmN+riOhiBPASYAHBb8AwCcGgTyl5y5i+yKvnHiY0ibQ1ryvuZlcuOE3Hi4xnwPSQIOTaKLjqTwuB28ZBYjomCpY5YLFS6aUq7LVscq4QLZgQKQYAJADcLTyEQXVRjDK5CDfaUUAWEUSTloCZJn0UU7QOp7e4lWObHP/mxEwFtX9XSuT9G5uO2wQV2luvFsmRZ/jip/e5+XpSNZQo2AkwAgm1f32mnLa/bOxqNTvaa4FjiP6xJ6gxVi0xKbhf6Upa3ZXtNxqDJo33bqHI0enwR/EME52BoQTKpQDtFOie5zZ4fgmY/1sf7CDAB8L6NEkpCTTszNXeJ8jMi3VWIu+KKvA3L+3NzJGlOco06C+Q6C7PiLlOCCaAtr3dmNJa1BJcnawdSdUWaktx2T59A6sZKeR4BJgCeN1HiCZi1pNZbsqbe4rbmIUXaH1PlpXJImx+RkufG21Of2/p7tb6stQ0bykeOz5c0rYZXZRSRiw6OxsKlmqVcsHmrSH7OwwhYRYAJgFUEOb/tCESX17hQy5EdjQ544tS+qm5CKN1lYSWyNDdVW5bSYvuPtivDBdqCgLaxce3ogSNfYCWgoS0FeqCQsCy/Hmq3+04PiMIiJCgCTAAS1PBeVzu6pNZ67Lk3tSon/Nsf0TQlXZPVzZhBbpSSktZLSakbks5J3SrLq7C6z49fENBW16uSm5k9S9W08/wic1FyUrvMqlqpXtl66/b7XReW378IMAHwr+0CLXn2ijrXKVHtHpCASGGKqopyVJZyj8qadhQ+6g8hwM6hcK56VAspv+RK8h45tXR6Us3obrnytsOBBirBlNP2dygT27p9akxSO/pZ9bCsPBhqm/6sn3Vg2f2PABMA/9uQNWAEEgqBE1EMV7z3pKJK98NjoO/6MFz7Wx+56PSWvAKVUM3Wk8r67uPxJIosFCPACLiOQNaymj1CkjwOoYuFAxC5LbSCEIrhsHKxfF76N27XzfUxAgURYALAbYIRYAR8i4C2skGjaE7WFEn1h68AbFG9nXJh+q2+BZwFDxQCTAACZU5WhhFIPARO+I5YEXpS0mJ/93QQIUXak5R82tlyi+8PJp6VWGMvIsAEwItWYZkYAUbANAInro+q8mhkbGQ6s8MZsPSvSZHkLpFWP811uCounhEwjAATAMNQcUJGgBHwOgK0GhBdHh6hKCpWA9Qkr8irSKGXIhftutcr8rAcjAAhwASA2wEjwAgEDgFt1Vn1ork5T+NswLVxV05RNiadr7aW5T2ZcZeFBWAE8iHABICbAyPACAQWgZzVta7QouoLCDHcPB5KKpKcqSaFL0xutWNdPOrnOhmB4hBgAsDtgxFgBAKNAAZ/Ofu7Ot0UNfYoHEu1clPZkBK+MXz+TjqXwA8j4DkEmAB4ziQsECPACDiBABEBaUXtq3Nl9SFVdd6dcFgOvRa6YNdwJ3ThMhkBOxBgAmAHilwGI8AI+AqB6KparaRc+W5Z0a7HYcFC3U1bUUiRtWXh89p0kOVPo1bK4byMgJMIMAFwEl0umxFgBDyNgLblnBrqwT+G5MraIFzUa2CPsPLepLJlzpObbPrFnvK4FEbAGQSYADiDK5fKCDACPkNAW3FWm2wpd0BY065BsKGqIuIrknI4HIldLLfcu1YkP+dhBNxEgAmAm2hzXYwAI+B5BHBWQJHW1Wybm6v0UmPaVZJkzM2woig5yNkl0jL9K88ryQIyAkCACQA3A0aAEWAEikHgyLbmpycd/P0STZOvkDUFYYjVOgWTk6c/WQoPDbfeOZbBZAT8ggATAL9YiuVkBBgBTyBw/IezaipqtEVE1VrkxuRzJU1rHJbDY0Otd/7XEwKyEIyAQQSYABgEipMxAowAI8AIMAJBQoAJQJCsybowAowAI8AIMAIGEWACYBAoTsYIMAKMACPACAQJASYAQbIm68IIMAKMACPACBhEgAmAQaA4GSPACDACjAAjECQEmAAEyZqsCyPACDACjAAjYBABJgAGgeJkjAAjwAgwAoxAkBBgAhAka7IujAAjwAgwAoyAQQSYABgEipMxAowAI8AIMAJBQoAJQJCsybowAowAI8AIMAIGEWACYBAoTsYIMAKMACPACAQJASYAQbIm68IIMAKMACPACBhEwLcE4Nprr62SnJxcPycnpwx0LS/Lcln8pN9TVVXV8ByMRCKH8fcjSHe4cuXKW0eNGvWrQVw4GSPACDACjAAjEGgEPE8Ahg8fnrxv374LMcC3QbztBrm5uY1DoVADDPIVBSzzB/JsRP6NKG89ypr/6aefbhQoh7MwAowAI8AIMAK+RsBzBAAzd6Vfv37nYYC/DIP0ZfjZlmb1DqK8F4RgXiwWm5eamvrFuHHjfnewLi6aEWAEGAFGgBHwBAKeIQBY0m+IgbgfUBmIwbhunNCJgoB8CTnGlS9f/rN33nknJ05ycLWMACPACDACjICjCMSVAIwcObL06tWrB2MpfjC0PN9RTc0X/gu2HMZjBeJ1bBOkm8/OORgBRoARYAQYAe8iEBcC0KNHj7I4mHcjYHkQbzXvwiNJIAE52Ir4GD+f+Oijj370sqwsGyPACDACjAAjYBQBVwkA9vZPw/L+PVhmvwMCljcqpEfS5WJr4EMQgaeZCHjEIiwGI8AIMAKMgDACbhEA+YYbbqC9/RewpH6asLQeyEgrAiAwb2ZlZf17xowZRzwgEovACNiGAM7ipGJ1rnU0GqUtuXOx+lUH32wafi+Hl67aWnrw/WShvFrYVsuwVBBnZgQYAcsIOE4Arr/++hYYMN/AR3+hZWm9VcBe+Bn4F1YDxnlLLJaGETCHwOjRo1PmzZvXGz4zemOAvhLfamlzJRhPjfJHf/LJJ7T9xw8jwAjEGQHHCADNJLBk/hxm/bdBx1Cc9XSsepCbOWXLlr0FnehuxyrhghkBBxAgZ1oYkP+JAf8mFF/ZgSoKK7IFZv/fu1QXV8MIMALFIOAIAaArfRgYJ2H5sHmCoH8Iet6Cju2TBNGX1fQxArpzrQegwj/xWl7WNwoFyMYizP4vMZqe0zECjICzCNhOAHDQbwCu9b0Jscktb0I9WPEYX65cuVvhP+B4QinOyvoGgf79+5+H/f0xELiJ20JjQtBn0qRJU9yul+tjBBiBwhGwjQBg1p+EAfANLPnTcmIiPz+Ew+HrJk6cuDmRQWDdvYcAvlH6Nt/Am+S2dOgbdjVq1KjeiBEjct2um+tjBBgBBwkAOfT59ttvPwXD78xAn0DgCJY7+2K5cw7jwQh4AQGszP0XK3PkdyNez/3YIhsZr8q5XkaAETgVAcsrAHS3Hx3LLBTtuic/DLK/YcVhK2YXv6D+Y3iP4uwBXc2jGQ5FCCyvXztsiH+76nCIrgvivQUrAaO54TEC8UQA3+iT+EYfjqMMtCVWEwSAgnHxwwgwAh5BwBIBwJJiLQy+X2AQbuSCPgdRxyK8C/CuQOCerWYC99CJ56SkpOaQtTU6w06Quy3IQcRpubEd8BRIwH9Qj+Z0XVw+I1AQAQz+t6O9vx5PZECE38Zq2K3xlIHrZgQYgVMRECYAAwYMOCM7O/sbFFnHQWD3YRY/EbP6j1HHKswgYnbVBUJAngg74u2Ltwdep/ZFaeBvC9mX2SU7l8MIGEEAbfwipFvoYNs2Iga1/2YcdtsIVJyGEXAXASECMGTIkApHjx792qFrfhjvtRmYNbzTpEmTL904NNSrV6/T4dRnCOq8GSsE9e00ATB6Gief47n8aqc6XJZPEKCrfhkZGd+7tDpXJCoUXXPy5MlX+QQ2FpMRSCgETBMAcvCDgXIuls8vthMplKmis5qdkpLy6IcffrjazrKNloXOSunbt29X6PYYBu4WRvMVlQ46fYWyOtm5cmFVJs6fGAhcd911j6M909ZTXB98A92x/D8zrkJw5YwAI1AoAqYIAA2QcO07BYPa1TbjORcdxd3oKLbaXK5QcaQnOtBrkfkxvHSA0PSDMwbbQWjO44NPpqHjDBYRoIO5+EZ3OunS16CI27D61RBkWjWYnpMxAoyAiwiYIgCY/T+iD4q2iIhB/2cMlA951Z/+sGHDIgcOHLgdyj6B14zHtEwEVGkXr5UMW4zDhfgWAZD0p0E+H7JBgRjI8Lf4Tufj5wYK5IOfdNvG0INvew/7wzAEFSdiBOKCgGECgEN/HXDo7ytIaYtff3Qm4zBDuQMz5KNx0dxEpUOHDq155MiRlzGTucZgtv7Q6yODaTkZI2AbAuSQC4XRtdhKFgql0Ndj9dDX2y2Uw1kZAUbAwwgYIgB0SA5X6NZgwK5ugy6ZKOMhDJCjbCjL1SJwPoC2Bd4GDhWLqhgk4SUse97rqmBcGSOgIwAC0Au/TrUACIXpvR7fJ1235YcRYAQCjIARAiD36dNnLga2K63igBkF7Ut29fOVINyASMMNiHHAo31BPLA8urBZs2Yd3bi5YNUWnD+YCICkTsQ3dr2gdukg+m0nTJiwRzA/Z2MEGAEfIVAiAdD9h79ng04/YFmx08cff/yzDWXFtQhgEgIBeAoD/v0Q5ASGIDe7EWSl9bRp0/bHVTiuPKERQNuk5X8Rr5fkQZP8VfyQ0ACy8oxAAiFQLAEYNGhQZez7b9bd6QrDgoFycZkyZXqMGTOGvPkF5sFp637wsvY+jf94L0bnuSIwyrEivkMAs/8G+Fa3iAgOQvsAtq6eE8nLeRgBRsCfCBRLANChvIsO5WYrqmFm/F1mZublM2bMoBlG4B4cjmyJE9cNcdp5YuCUY4V8hQCdUcH3Osms0LR61alTpwY47JplNi+nZwQYAf8iUCQBoLjhmN0uR4dCs1uhB0v+P1atWrX9qFGjfhUqgDMxAoyAYQRw/e9fIKNPGc6gJ8Ts/1nM/uMZKdCsyJyeEWAEbECgSAKA2cQyDP4XWqiD9iIvxLJ4uoUyOCsjwAgYREB0xQ4+K9rCZ8VSg9VwMkaAEQgIAoUSAHjBuwL79vNEdSS3vsh/FWYV5DeAH0aAEXABARwA/BTV9DFbFc75lAvqFp1ZLDg9I5BICBRKAHDt739YFuwgCgTy/geD/5Oi+TkfI8AImEcABGAOcnUymfMoVunMeLk0WTwnZwQYAa8icAoBwKG2NnqYX1GZF2Dw78j+v0Xh43yMgBgCIsSd3HEjBkcNsRo5FyPACPgZgVMIAGYRFLmrq4hS5CscB/+aw7f/jyL5OQ8jwAiII4BvdyFyX2KmBCYAZtDitIxAsBA4iQCgA6GZwC68Qv7+Mfg/Bkc/I4IFEWsTFARws6UcTsnTXfkKWKGqiJeWvlPxfznhcPggfh6FJ7x9pUqV2vzOO+8c95veTABOtRi8coY3bdpUF2eSauAtG4lEyubk5JRDX6XB3hTY6Cjawe+w+484CEkHl/kpBAGKkNq7d++aqamp9fB7FR3DCLA7ittiB5DlD7wbOfrpn+AhkFyp48eP14dzuCr4Z3lqe2hzpamvQRs8TH0N+iFyGrcFmB2KV6M7iQDg8N9DEPRpEWEwk/gJd4mb8V1iEfSs50HnfwlscLqRktAAM9DZLTSSltKg7FSUXRNtoxoNnPgvCjgj/KD+JU53tnpQnHYY2DuiszoHP5vgo6ttUGgN+u5C+vXQ9384JT8f8q5DXs1g/r+SUSApdASGb9NQtD1soc02W49uJ7JpQq8A3HDDDfXRsXYGDhfAfk3wszHeZIN4HoTdN+NdirwUAXGRaLAyismAcsIG65WqVau2SPS6NOo6H3UZbdtHseVDZ0WKfXRvpxdj0LoS309bfAetkSG1pHz4O5GotXgX4Lv5UvS7MVCPZ5IQVhDmfGB1FcjQufjZDP+uY/QKPa3C6X3NIhDR+SAN36HdxcwqCDkqoazLzeQ7iQDgHvEmCNLITAF5adHBDoEvnLEieTmPdQRg/Pko5TKDJX2NBtahqLToROvio+9CgwkaVAs05Lr4vUS30QbrzgQBqIFtIpo12PoQ60b45usgc0/IfAUKL2NXBSjzVwwIn+ADHWsmzDOwvB5YmnEStQO2IbxNPyIrAKYrMZehuRuuhbGycyH6rf6wT2fY/SxzIhadGjbPQblfwebjYMPp0IUCmRl6YIvDSGjmcOWVKF/o5hUmbuOh+wAjgpFvFqzSNigqLa6SNkZZd+ClwGeGJhTF1UtOpkAexqK8MSAePxmR0Q9pKFT8wYMHe0DW3tCN4uRUtlFuIqLTCDNMBhajXEMTD4zfRHqXm5Hjr06dWCQyfmsmc760dNe/PhpwVDA/Z7OIgFUCgPxl0DkMQAMiz4+tLIpTZHbUMR4d0CA7y4fsDfHB3IoyBxcXqdHGOslf/osVK1acgK2CnOLKZQLgTGyBkSNHll61atUNmHHdhgGmhY22LaqoQzSQgbyONBIsyW8EgAYPYPk4dOwIAOwi+/mxxHimzcKqwOPA7zsX7OVIFSCbZ4IMDoMu1E+e4UglJxe6A5PrV8qWLYuupvhtSUsEACxyFJS6S0QhdOq3oVN/SyQv57EHAVECQHukW7ZsuQ0D58N4q9ojTdGloIO5BKx2kR316L7vyfNdb4c6rZLE3IEEzzRt2vSDoiJAMgGwlwCMHj06Zfbs2cOBO3kurFSSgRz4exRkczTOiTwFWXYXVb5fCABtUR07dux5fcbvxMB/CkSoayb6gXswYdzmgH0cKRKDa3X0jyMg+1BUYHhrx0Zh9mOcfbFcuXKvFkUELBEAdKZboGCRS0NFKYKP4QD2/qvz3r+NphYoSoQA0HIfZvwU2pj299x46MAL7ckaWtIqSqC777676q+//voosXC02YgbghdXB76BtZDjNui2rGA6JgD2EAA6hIZJCq0cPYa3lgdsfgwyPV6hQoWXClsF8gMBgIxDgOPLeMvHAU/aTnkKq2jPlbSKFgfZ/qqSDg5jxv8AbP13/GepeMqi170D/c1d2E6h23onPcIEgNgNBoK9Isph8HgLM7rbRPJyHvsQMEsA6OPDOwWvmX1KSwKjrfwTbeUFK4VAz77I/wbeeMz+ihOdDg6+07p163/cd999dLr8xMMEwDoBGDJkSBpmqWMAp6kDjlbamdG8GBg2oF0PBvlblT+PlwlAlSpVzs7IyHgXff5Ao3o6mG4ZIsX2LW41xcG6iy0ag//l2BYZDXJfM14yFFPvNPztFrS7jLw0wgQAndQgsByhA3w4IHMR9nRMHTzwIJi+F8kkAaArO+XwurmURedDzszfYM2ADv3KYwnsOXRaw8zkczstZNwMGa/LO/zGBMAaAaAIh7Dh2y6d7RBtLtnI+ABs/gp+nljd8ioBgGi/gKhuB55tRZW1Ox/k+Q3y9AV+C+wuW6Q82maaM2fOCBC7+4ye5Bepx4Y8e3Gmoh8OJdNBQUmYACDjaHRaQ8wKVNKJUrPlcXpxBEwSAPGKBHPiY8LkfxLN3k0/AwcObAaCOtPENT7TddicgXwI3IgO7RMmAGIEgK5xon95zyOzVEPNg9p4586dB9N2qIcJgCFd4pCIzlYMwNI2xbOI26Nf2/0cA/85cRPCXMW5SE7k80VhAgCWvQMKp5mrF0dFZfkVdOp3m83H6e1HwAcEoKNIcCg9MNVkIBaPfUorhtIwgN2PTm0PXwM0ByNIU0XchZ5qJR6JuRrtSw17L8esrFtmZiYdEDWzvebKNUD7NHWkpBhOvN8Ur+vkgwYNag43+DM9uuRfLOA0FmM76mMkMoCO27YAACAASURBVBXVU6ZDDvjYhDwRobFfDcY23ZGmwIWaQsDjBGAHBv96ZuND9OvXbyj24N4BEG5uVZjC3UDiFUhDV2yNPgntB+Caa66pDeL0BcBqaBQwr6VDR7wOOpDHyRQTsjEB+BOsGPqJPugvPjOBneWkmASTD4lJKMg23yGWhTJfgNm+RiICcB4IAGU0+8RwJ7aKEw5dzArC6U/sOZpxBOQqZOgMH8Y1UVMeJjEL7E83FDy+B+cEjglLAHr16nU6ZoB0RdS3g7+FBsEEQAcPE8tj+O4vKXiw0gK2xWbFKuOlIB2zTRI2p8RxtVwZs6wBmGWNN1srWO6ayZMntzSbj9M7g4CHCUAuCEBtEICfjWqOD7I7PsgpXrjiZ1RmG9MlJAGgQ57oUygMuRtOfWw0l21FMQE4Gcp0TDDPdXqCqTvA+wpVm9musc3o8S5IxsGBJzDT+rdZQcDSJmD535D7SbNlc3rzCHiVAKBTnw6ieLVRjTD4k9/xrxKRjesYJRwBGD58ePK+ffv+B/0vMtpOApiOCcCpRp2MVQC6BeLIQ3EjcD6HbrB57UqxI/oWVqiMvY9J6GxNg4xZ3SOY1T3hmqT5KiK3tWCHcXcA47TuuF5J7kdVI/V4lQBA9m74iGcZ1IEiZ63B62Z8+qOoj4J5GAl0YkQNq2ncJgB0j5iC5zjxUHS4Ev3ng/S9Rv7nnRCgiDLJ5gpeLzh2yRPR8wSAwr1D2I14d1AERRIcY0cp2C4Nv1IAnAp22xB19sZEc6rd5aK/pABny1w+7U8+/kt7aWVT7tOnzyIYs71ZgLFX1xenNenQhOsPZP4CMlMAhqA/tdGBUpyFEh+XCMBxNODFwH41Vo22QigKpXqwOOFoWddIZCvd09tclEW+yJ146P7zAnx8i3BKez0cy2ybNm0aheM88VBwD4Q6rfT77783xpZYU8jTDv99VRzun7tKACgSGTpYNwnXSbYVuCZpuG3oAZwW4OciirZWvXr1H/NH3CM32GvXrq2EuUQj2Lsp0rWFvTuhAjsDuxiV16sEgL7xScDooyuuuOKbojy+0veL7eSWukthislhi1tx2GQnympihEgaBZrSYeWbrpjeZCaP0bTkCwQyUzTJpehrNuPnNkzmKDjUiYfIB35UgW7Uz5wNfC9D+g74P6NRK42KUmI6IgCrRfbd4ADo/HgFdWACcKpdnSQA1JDRAbyGgfEzuz/EPE3wQf4LHyR5J7TtoWhukP0TvKNxqnih0dWUPAFogNi4cWMH5LsVH2hP/L8btxEShgDoUSe/B6527r/mwu50bXQ0Vii/MmtzfEchdNrtcTCaggz1cnG25jUCkE2+59HPvzBu3LgTs32jDwVqWrFixT+Q/j68lk/Vww7/wff7pNH6S0oHG9+ANBNKSmfm7+QSH/3M+2g7Y8ePH7/eTF5KS5itWbPmamxJ0EqYa1thtAWwDY3cdAhNKNwQMweaBbr+MAFwhwDAxlspQBQ+PrqW5diDNkjtb72N+/4xdF7voxN/eurUqbvsEJyup6EzfAJ49Hf4ZkLCEADYfRawpLDTlh+0VdoqGwu7P4mDY9stF4gC9Mhvj2EAGuKwzUlczxAAmsGinV+D/n2TFRwpZsfevXsp1ojV1VoiIGmYfNDWjaUHbqUrYPVvCwqxHOpYF+QI8HoG72v5Z/lWhKTw1ui7RqIMWoV09JHBhn4VAQNMpzpcEP7iqHRFFM4E4FRg7F4BQIf6afny5YeUFILSDvtDdgps0dWOslDG9/gY/4bZ30qbyjupGKxUtMZKyBh0ak2dKB9lJgQBwODfE4OqLXe9yR9/SkrKMPRHppygGLUf2ue5SDsaL/106vEKAZhXunTp68aMGVPs1p5REGhFBd/KU7DRA0bzFJYOW873YMuZAhdZemw+b0L++IeDmAjF0SlJET3uyetI59iWFBEAClxi+jAMPCaVmzFjxpGSlHDi70wAHCUA5Mt8BBo1HfC0FLXPiO3R/nognS3OpDDwv4lAJ/e8+uqr5JvdsUc/QPQ8BrDbHagk8ARAx2+jiPfRgnhTaF6Uc4dTW1N59dFNhf379z+DuigqnBOPFwjADIS27l1UaGsrSsPmDyO/8DI+7PwTViTqW+mTQN5bYJvxO5RBh36tPNkgJPeCkFBQMkcf4FYD5OlDp7xiEgEgX8IigCTjo6MAL64/TABOhdyuFQC3b3eInkEpgAC53f0HZv0vudkYgfmd6JhG2bw8HHgCgMNiw7GKQoFzrDwaOsUHsT31nJVCzOaFzYcgz7t47T4PElcCoAexuhB9upBXWCM4YvY9HoOZ8NVxyHghvvFvjdRVWBrYjiYaNOGw8tChyF4ibs1FK6WzSJs2bXoT/czNomUUlY8IAJ1ONH0IB8tEFe1aJjKrFBMAxwgA3bu9DqU7PvMnDdD26MT1HLP2z5+e9n7RMQzFvu84K+WI5qUDRZBhvI0kINAEgDqzDRs20NmhOqKYU/vEDOw2zMDetlCGcFZsX1wDe9MNKJGJU1H1xpMA0N56C3z724RBMZCRouzNmjVrqcihcyoe39mrWAW4y0BVpySBzRrjP+mcEV3/FH0OYuv7cmw1rRYtwEI+8tnzClYw7rRQxilZ6RDgXoBS3WyhiOFcK14xnBOIAFD4XEP7SzasANDBGOoESry3bbatFJUediTPbx2slIfB/163Z/4F5QX2t+H/7FoODDQBsOMENtrMvzAD+6+VdmM1L1YxbsYqBq0E2PXEjQAAzyeA5yN2KVJcOVgFuBirAF8L1rUN/RNtA5h+MM59gHFuqOmMegbygYCbUFfmhd4VLcdiPiIBY+2MkEkFbkWBpkEFA28MBr7ZokJC2ROFAFSrVi3F6H62DQRAuAMSMeKAAQPOwTkSugIm/KDj+gAdlyN3ec0KhQ7mLXQwt5jNV0j6QBMAfLvLYbcLRHFCR/wxZoH9RPPbmQ82f8nGMwHC35+VpXW6vgYSfZbTLnfz425xKd6wb5S8OkHWTgNZo4lUkqj9gdFNmGh8IJrfrny618xvUF4rO8oU9gOAytuAjS2zQwizZSQIATgEfA171rJIAJahrjZm7WAlPYjn0yCeD4mWgY5rE24ptHbjloIRGeFIqNShQ4dWYkCgpUYrT2AJANooLfv/hFcWAQid8Ha8Ley6biUiQ/48emdMrmTtuB0QFwIAMjYCJPoxq1iYya8fxhNaRscsfADIiqk7/Kjvb+hrKKqo0AOMJgIj8h3giQfEswEEWY2+prRVgWgL4GsUdLHZgrACMBArAB+azWdH+kQgAOjofgTjJEMbeqwQAAym12FW9amhimxKBHl/RFH1BIujMwqXgrSILiUKVlt8Nv3+Ll1FExrg9NKDTADIMYyVQ3udYXPyFumZh64I4vtZZXFvmfSJCwGA7PXw7RMpc/VBH74WA2tzs5Vi3HkG446piQNs9CXqEfUw+gfyNkK7I5fZnnlAau4BqXnRqkCy6PIRBqjHMECNsCqASP5EIADYJ1uMIDqGiZkFAnAEWw1VjG41iNirYB4rMwAqy0vLwIXoNgEfppXZQmAJACYbKzBQnifYhmagEyZvjJ570Ie+j+/1RouCxYMACO+pW9RVAmbPiPgGwLc/BYSlj9H69eV/8lcjdGsDhOMuEI5XjdbnVjr090kYg9eLbN/nl5FuAdDhD9NLQKj8IxCA/m4pnL8eyHwT2KPpcwtuywoZw+jwyCWm6cdsQ7dAAGahY+1mWkALGfDxP4SP/2nBIjQ4fWku4m5TsD5T2XT3tnTKXfSEeCAJgN4RU+wFodUR9DfnOeXcyZSBC0lMd7Xxve6w6DbYdQKA/ulDLG0PtKq/SH6QwW7A63OzedFvrMPE6Byj+dDu+mH//yOj6Quk+6VLly51i4p/IFimbdlsOVArWgga/FowMTv2vmwDxGsF4aBbSxx0WyUiF5jnU2CehsM0ixKAeKzkWDkEhHY3G+3OLq+BIqYpMQ9WqD5D5yo6Ww0kAYDNyWbk8dH0A5v/Dza/zHRGFzNgQJuIAe16C1W6TgDc9vmRHxs9FK+IK/m9mLCcaRRnjP8vgwDcbTR9/nReuG1SnNwUwOzAgQPk6vwMEf0oD60AnI+fpp0r0P1rRE+rHC9fAKIKu5nPosOTa9HQKaiJoUeUAMTjLAdkpSW5aoYUK5AoHucVzMpp0b9BIAkAVn0ex+ztP2axpPQ4+DU4Xn4ejMoLm1+CtAuNpi8knesEADLcjj7mTQsyC2cFXuWRWcTdsKnD0SBmFPL3QgFBY8hDNw4MXcMWKN+WLFa+qxMEAEysIiIQ0UEH0w864+5g5kKs3nRlPsyAvW7h/WCzwZZECYDbNkQwjjQE49ghaM6jWJKr4tUluTyddGZOh4aokzP7BJIAWDi3Q26dT7MjEIxZQ5hJj++PtnyI2FYxky9fWtcJAMj/EKwyjhWU11I23SFUjkAhMbQFQ/v5tE+O/u2QSJAxkNWF2Gq4VEA+V7NYPU91Yj8OQFH0LNOeuQDucyAAloI8uIqWi5VRhwB89qHxnWa2WuQ7hv3OcmZCmYoSAMgm3PGY1YvSg5FfCUxEowvOxcffWaRet/OAmVMYYvKqaPYJJAFAR7UTB5ZqmwUD6b+GzTsI5HM9C2w+BjYfLFix8HcoepA7ngRAJ0zkht70g/ZA3vxK9FZK1+XQ15CDM9OP3SGITQtgPAOt4qcjueFtkfxFnyAAAGosgBpkvM4/U1IULrCkZmbzJUJ6Kx6vgOu3wNXUspVfCAC2RQZTND2RNoA9y4dBjEQPD4pUKZwH9qB9R5HoZUEkANRJkYfJZLOAUnhf2Fxo68BsXVbTQ8dhKEPUPTETAIMGMEoArGzLgABcggOSiwyKFNdkFiYbf57ItejWsjkM8kNcEfBg5TDKixjI7xERTfCu63zUJXJQSrjjEdENM8F/YSb4lEherIxcjRUnWyIHitRvJg/sfynsv8BMHj1t4AiAfgNA6B419v/7Yf//YwEcXc+i+4EQdY4m/B3yCkDhprZyAwDn204bN27c7643IoEKYf9/o6+h6K2mn7wVAOGlEjD0/4Kh/8t0zQHOoO9v7YSKNUTUFGGfflkBQGMdhcYqFNADWDYF2dwogqnbeXAD5AzcAPlZoN7AEYCBAwc2y8rKEp0ktIbNhW7SCGBvKQvOt1TA+ZYDgoUwATAInNEVAAvOcv5AHZUNihP3ZOj7yS+CkCO3v+7kWjiZvQNLJfXM7FfHHTGHBQCWvVDFVMFqDlWsWLEKXNyaOiDjFwKA7aZ3RcNaVq9evdqoUaN+FcTV1Wx0AAkV0gE2s0/gCIDoTSMCDlFH6+CmEZFpPzy01UEh0g0dUiugEBMAgxY2SgBgi4dR5JMGi82fLG4OkgRkJadKoquN/++Uw4o3Kz0+8mciwgcxj4UTzwQHheS91iwufiEAaGdvYgXgVrP66enLev00eH69QHaOCvjrDhwBsOIPA3ie7jU3rMW1Xdg8Q+TgL8pkAmCwUzBKANDX3I++5lmDxeZP9j3qaCGQLy5Z0PeTP541IpXnXwEgX8nkM9n0A5CX4tBaW9MZA5gBxjgbe9Xfi/oGF4065RcCgGW5Vy3EtK6AD/OQX5oNbHIMspYyKW/gCMCgQYOaZ2ZmrjWJQ17yM2DzfYJ5Xc8Gm/+GSkWWj5kAGLSWCQLwD4xNzxss9q9k6L/X46zR2WbzxSu9XQSArq3txcBVVUQRrAK0w1YAhSlM6AczgMnAsLcgCJlY8qwu4lzJLwTASgjVMmXK1Bo9evRuQWxdzaZfc6JtHLOubwNHAIBFE+CwQcQAZv1hiNRhZx7oSts+ImFnmQAYNIRRAiB6EweTsF0415ZmUJy4J8MKW3ucNxK6sXBS54TO+XUMXrcLarQEhqHgNSXezxQs3/PZ6LBTNBpdKzr7B4kaCxI1RERRvxAALMs9ClY+QkRH5GmBNva9YF5Xs8EelVChyCniwBEACwciyWZxCztutsHA5qnIc9xsPj09EwCDwBklAHByNwhO7kQcHR1FHeX8MpahT+2OPnWGQfhOSnYSAbDCJPRSTbmvFRHYy3lAoOZh8L9CVMbk5OSLP/zww8Ui+f1CACx8lOQSNhGuhAWOAKA90+G4o/hpdjtEwpXYG+GtbrTIN+F2HvSf52AmJkpQmQAYNJhRAmBlPEtKSqo5YcKEPQZFimsyEAChrQ4S+pTlSXyodJhAKMgPlut2ly9fvhFOsIuy4LgCaaVyDGz9wTY/FC0D2G3FvlMjUdbpFwKAxtoWbHWJCE5+cgqDO8hD4fDoAwE9g0gAJByMXY8VrqZm8cB38QK+i3+azReP9OgDrkcfMFGwbiYABoEzSgBw3qg6zhsJ+fJHW+2E1VhRj6UGNbEnGfR8D3reJFLaKQTAygyNBEhE98B6PAW6ny4U4IZww0znHsx0RDzHnbC7XwiAleVgtK1FGAwo6IrnH6wGvYXVoFsEBA0kAQAeM4BHdwE8VqDDv0Agn+tZrDj/grBMAAxazCgBQHG08kQHcWlrxtQDAvA0CABdI/T8Ax3XQUihQ4unEAAKZHLo0KGf8LHWFNGcogRiMLsSyyfkmS4hHnz4H2FW28+Csvtw9/8sKysnfiEA9FFiMPgd7auiWbzQtnLQtk5D2zpsNq+b6XVHUOQESCQwTFAJwLOw+f1m7UD9Cd6qIMd0ut7LD7XrXaL9JhMA46Y1QQBo5Wk1BnORK32rUE9r41LFJyVWGhthpXGTaO2FnlC2cH8yT4696KjP9cFHK4rbX/kw8N6Gf7xhsaC/o7GNslKGjwgArVaQO98eIvrGI3yxWTmhXyfkmWM2n54+qASgGwbHz0UwwdbPMJzKflckr1t5rGxt6TLyCoBBY5khABggX8YASXE5TD1EPNHu6sMNNQXK8+xj8VB14VeU0IFRGFNSnE4yCz2YEX9ZqVKlbmY92glVFqdM2Htpjb0Xun5heokpT2Q0tJ/RMdZDo6ZgKcKPzwjAvVD0BRFl0a4Ww+cE3Tbx7GPxKmggCYDep9CtCAqba+qBzVfC5ueZyuRyYiuO1HRRmQAYtJkZAoB2J+yV1etu7mmlcfPmzVswBtU1CN0pyYq8owzmNBzM6RXRgikfll4+wD6K0OEEK/W6kRcNqw4G72WifhPyyTgcDfo1qzL7iQBY9Awn4cNsiRmhkOcrqziXlF8/CU6ymb3/n1d0IAkAKYc2uhI/WpWEYRF/9+x1QL0v2IK+ICKoG2VjAmAQPDMEAE6oKuNmxn7Bq9n7zz///Lr33XcfnSPw3IN2NwRCWbohU2Qnpe9jkvcucuJh5XkUBnvcSgFey0uNCvf9l4B50al94Qczm3VYJWltxyqJnwiA7iRnP4ATWmECbnMwI+wiDLyDGbHn+BmIb08LVQSWAGCWPBK2EzrRj3wLYfNLLeDqWFYrp7DzCcUEwKCFzBAAKtLKzTavhiCn8XnTpk2bQWzOMghbocmKnaUgvOXlGOi+slIB5UWH+CxWAh60Wo4X8vfq1et03BH9EsCfY0Ue2mPCvfb2uPe/1Eo5eXn9RABIZgwGr6FTv8OC7sIdpoU6i82Kpf/OaBezqMlbqCOwBMDiPXmCtCc6fyGHJxbsUWxW9JHnoY+kb1gkAFD+soXbM4cDLt66Vu7Jo+SD8M/SBP30L061IZFyQTr/iQnoSJG8+fOU2FFZuL5zkmz69UAiAb71FKhfYSNCZHVVhK5LvoErbVYGwJPw9RsBsOgfnnTfCwJ1Ng7piIZftfrtnJRfj3lP13HOsFhwYAkA4YIVku8wIRA9Xf0L4rSf7ZU47XBLnTJr1qyVIv4NCmkjTAAMfjhmVwD0b5Oc+iQbrOKkZHSeDatPdLDXE2MXudbG+LEKk40UEX1MEQBURjHtaStAJMBFQRIwulOnTrcPHTo0y6rgbucHDucC9GkAPc2GuolNNrYzsI3fCABhaHFPmFaWJmJlqX+8P0x0EApmGdMgh9DNhgLtKdAEAJ3xLThb9JaFb2gabN7HC+HHLQa2KggBEwCDjcIsAdD7mk+Jfxqs4pRk2Aq4E+eOXhfNb1c+Ip2zZ89ehvKEnPUVlKPEFQDKgM7tanRy1MFZflDOGiyh9/H69Yr8imKg6ot/k1c3065MCwJGS//4v86Y/QtFXizKAH4kADYMBnQg8BF8mE9YbpgWCsAq2SsghsMtFJE/a6AJAJbMy4EA0M2X0qJ4eeF0th2HpAvozwTAYIMQIQD4Rq9Em7Pi2S8XfXdXu/ttgyqfSKafnSIiQzcbbHkMEQCqCQC+CwBvtqNWAEnLtjcDzKl2lOdUGXpn9YJdepOcTg1YfiQAOpvdAlhqWbChBt8Ad8LnhFVfDEIiWL2HW0ilgSYApC8GzydBAix5WcMKwD+xEiB0lVTI0Pkykctf7L9OEDxZXlT1TAAMGkaEAKBoctS0FDa70GA1pyTDuHUY+buifiFX5qL15uXDitPbaHfDrJaTP79hAjBy5MjSK1euXA0AGtglAFYDppctW3a4F0O86oyRnI9YGZxOgopOr6PxdHNi+dKPBEAfDAZjMBhjsU3R3ty/gO0zFssxnJ3YOOz4jOip9mIqCjwBIJ8A6Ey3oS85zTDghSQE/iNAAuiGkWt7s5B9GGR/zeKVv8LUZgJgsDEIEgCaQZMb8YUGqyk0GWx/DN98bzfjBEDuJNRLrsWHWpG9sLyGCYDeWTeCEMSiTLtxLUbwoxTkpVWrVq954b4lBv7GkJXclor4LS9STYoxja2PVk4dYPIrAdD3z1cBODv2tGibaqidZysKM2iPHj3K4mQwBX6yY8+/YBWBJwB6X/J3EL+XbOjQZpQuXXrwmDFjDtpQVpFF6ITvKbTXBxyqhwmAQWBFCQAVDzvOxI+uBqsqKlmMxiysOj7uxGQuf6V05fz48eOTUU8HizIXmt0UAdABJBZFeylCJyqLUSIDf3sRThtenzFjxhEnlC2uTDpZCaPeiyWWwUhn9UrPSVWBvZEf84ux5SHss7kkPPxKAEgv/frc7JJ0NPJ32PBH2PAOdBLzjKQ3mwY4d9VngGlm8xpMnxAEYPjw4ckZGRkbrXgxy4fnDnSQd2JWZksbKmgnLL22AFl5E3U4GZSICYDBD8QKARg4cGCzrKwsctRlRx+/AOXcDnloG9P2h86eoa95EZPR6rYXrhdomgBQPj307Xj8KpS/OGXofAA+tAnoyMch6Mt3TilO5VLgowMHDlyJOocD5Cud0AdlHsHM/3KndfEzASBb2OBKtWBTmYwrY09gxYWu5ll+QFLOQhuhe7e2HcApQqiEIACkO9psO/xYiNe0e+DCsKMtxZSUlMdxZ3u1ZYP/KV8VnC95GIP/nXbJWIxcTAAMGs0KAaAqQOj+A+Jpl3O6bJoQ4EryC3b5CiCSkpmZ+QLGQRqTHH2EB3B02A/hg3vaSekA7Ca8n8JY81HXchg+arU+OtiHmN2XAFzqyK+2eTujoHjZ+I8ukJuYoqOP3wkA5C8DgIiZ17MRKA3th4LyjIGdZwrEW5DRzi9HW7kLZXS1+dBXUWomDAHQO+Mn8H3/20abS3RvGx3yGJwvmi4SYZNifMDWd8Lufe24a21QNyYABoGySgD00/QLUR0RULuebJq4YrI3Hs8is1sDuky0pUhkkzxeCo/NZhSyVAmEvg+VPeuSsMfxYS/BysD3+Ci3AuDNZ5xxxjYwpT8Kc6WruzKuiXRnIQ/N3pribQ9ZKW6yLTOO4oDGwJOF+vq65bnM7wRAHwwuwGBAJ2ztWJ4raJ4jaD9fwy5LKbgM/pjepUuXXXk+KegDxL7+6fj/MyBDS7yXoe1cBhtWNfNB2ZA2oQgAfafr169f4sTyOh3Ygj2+hr2XofwV+Hc6ZvO78oggnT/BbKsqth3JxuTn41LYuwN+t+3gr4n2wATAIFhWCQBVM2TIkLRjx459j18p8J3dzy8Yc/6HPmQZ+pS12MNPb968+V609VyqiLa/9u3bVxV/OxPt8QK0Q2p3NDZVsFuQksqzRAD0TvtWKPC6S7OjovShmfZRvIfxEVfQ7xgnlaS8U3+nbQzMQHpiSWixU3UULDcIBIB0whUxuw6HuQW93fUkFAEg8LClWBercuTchAhYoj5MAAxa3g4CQFVhW+8ajBWT8KvjE0KDqrmezDIB0DvtfgByrANXY1wHxGqFFN4XzK6zXXvPRuUJCgHQP0y6hXG/Ud0Dli7hCADZT3cN/TV+dX0W5JH2wwTAoCHsIgD62GXVM6VBqb2ZzBYCQKphr/QKrAR8hF+reFNV56UiL4c4NNQNnul+dr62k2sIEgGAZrT3/h7wvNFtHD1QX0ISAL0PuZR8ZeB3u28YecCsJYrABKBEiP5MYCcBoPJw5mMElusfNVh9oJLZRgAIFQxCNfABT8J+W5tAoWRAGez5jC9XrtytIoeODBRfYpKAEYC8GxqfQHGnT92XiK3LCRKWAOh9CPlrn4A3blt4Lts7rzomAAaBt5sAULU2u/M2qEn8k9lKAEgdOtSzcePGJx10mBF/1PJJoLuHHIZGSYNV3J6gEQB9MACvCr0Mdk4nY/34HIT8EyH/bSaET2gCoNv9MvycgteX2wGYAL2ir17RzRajDxMAg0g5QQCoaqwEPIBv9b/41fZx0aBqVpJlY/X5dRwqvNdMIY4piiXc7vgIXoMw8ThRawYD4bTQbyH2qodMnTp1l3AhNmUMIgHIgwa63QuiNTLOB03NWiodd9K7okNphgNuE01kTngCQFj17t27KQ7SzgJ+tU1gF9ekFOgLz4MYoEaizR6GMGVNCMQEwCBYThEAnXyS8x26Nmw51K5BdSwn0w+dX4PBPxPfy3IzBTpGAEgIONopdfjw4fsh1EP4Z5CW9H5B5/QgIhqSMyTX/JAXZ9ggEwDSW49I+R5+tRyW2swHIpiW/D5cj44qgwLHMAEQQxFtuhpI9kSn3KCKSVV4Lj3AWX94+6QzDLQdygSgGID1e+8nbrb6sQAABKpJREFUrsWZfZwkAHpf0xb2nOAH8gk510Lm3mh3P2EFg65Re4cA5BmWXGlCMIqlfJFZY3spPcDOQYc0Cq4kH4+Hu+JEJgB6p1oNNnjH7jgNdrUxvX081aRJk6fy7vwyAbCMroz+Y7i+NGs5HLdlaQopAHZfRCuBGJh25P2ZCUDxSHuZAJDkTkSCtbntkZOzN8uXL39f3rkzzxKAfB9FJ/z+iA+JQBRgj8NH/iw+8m02G9KW4oK+ApAfJPgKoAiCL+P/vLRH/D2uf95U0A0tEwBbmjf5CqgPEjAa32Bbe0q0pRQKZPYIgsKMKuj5jQmAvwlAnvR6nBKKClvDlhZjQyFoc9vxLdxaMN6J5wlAPiJALhgfw0uHfTz7kCcxzPjfR7Sx570Ysjg/cIlEAEhv6FsJne4/YB9y02vmsJXd7e13FPgfvO/gg4wVLJwJgK1wU0x3uhXyGIhAM1tLNlcYzb4+ggwPwOZ7C8vKBCAYBIC0oK1sxIy5Aza/Hza3FMLaXDM7ObU+Hj3TuXPn5/M8mOZP4RsCkI8IkPvNwQD1BvyfZ7yAkatYDC4f4lTlBLB7iuTn+SfRCEC+NlQFtrof7226B0hXbIV2+xvayYvYDnqtuO0gJgD2m0MPIX0tbPAobE7hu1156JAfKpqCOp/AwP9DcZUyAQgOAcjX15TB7PsuzL7/gf+r5Eqj+7OSo+jfXke7f4HOFRVVr+8IQJ4ielS+zvjABuH/OuIDK+ciuCeqQt0/AWQ6cESD/ma367daX6ISgHwfJ/n0vgF2vBntp6VVPIvJvwJ/exPvJ0aCCzEBcNASfzqM6kA2R+dIbl2dOrmdgcnAGPQNb+Hg73YjGjEBCB4ByNfXpKI99MY25M34v4vxOnWYfiPqeQv1jENfc6ikdudbApBfMf1wyLlgWuRZ8Ar8rZ1DH/Y+dByLUfZXeL+ZMmXKhpIA9vLfE50A5LcNlokbwKY90X6660FmrNxAoQiUK9AeZ6K8yXTa1kw7YAJgBi3xtD169CiL8M90xqgnbN8RPy2tKNI+K+w9j2yOQ50L8w51GpWQCUBwCUB+zbAUXxOrgN1x06cn+hra2rZyUDVG3mQxLs3BFeLJZt3JB4IAFGw2FDkJ+y+NADB16g0AciO8DfF7VQBVFj/pIFhhDCwXfz+Cv/+OnzuR50cs3WxB2hNv/hO7Rj9qL6ejDrBMmTKmo+ghz9HCoil6WVczsuHsRsqcOXNaoQ2cT+0Hb3107jVRRnm97ZDb2SN46aDnfvzffvz8Ee1lI9rL2ooVKy634t0RA0ESroyWNioz2rlqhO0XVp5IG7BSn1Gd4pEOuFNY6YtgR4oCSjaniKAVYVsKFkYrjBTH/Th+UhCxvbD1z/j3BqRbjxkXhR5PtyI3os1ViEajhmeGVr7DkSNHll6zZo1pkgvbH7MjxLooTiDHFUXyYhXmgEg+p/OQE7zNmzefizZ3PgbyxmhT9dCmauv9DI1TqbSPT30N3gz8/VfM8Hfi7+uR5wf8XCr67ZNuVP/WrVvN+J5wbOnCaaxPKp8+gD179pTJyMgoDUAP4WrE0VdffZUiBPLDCDACjAAjwAgwAoUg8H90O5eN0CZrQQAAAABJRU5ErkJggg==;clipPath=inset(0% 4.95% 21% 10.41%);" vertex="1" parent="1">
          <mxGeometry x="316.07" y="300" width="41.86" height="40" as="geometry" />
        </mxCell>
        <mxCell id="JU4nquK_jm7ar9zYCTRF-42" value="Autoscaling Group (Single Instance)" style="rounded=0;whiteSpace=wrap;html=1;fillColor=#e1d5e7;strokeColor=#9673a6;verticalAlign=top;" vertex="1" parent="1">
          <mxGeometry x="192" y="115" width="290" height="125" as="geometry" />
        </mxCell>
        <mxCell id="JU4nquK_jm7ar9zYCTRF-43" value="" style="sketch=0;outlineConnect=0;fontColor=#232F3E;gradientColor=none;fillColor=#ED7100;strokeColor=none;dashed=0;verticalLabelPosition=bottom;verticalAlign=top;align=center;html=1;fontSize=12;fontStyle=0;aspect=fixed;pointerEvents=1;shape=mxgraph.aws4.auto_scaling2;" vertex="1" parent="1">
          <mxGeometry x="452" y="115" width="30" height="30" as="geometry" />
        </mxCell>
        <mxCell id="JU4nquK_jm7ar9zYCTRF-55" value="" style="outlineConnect=0;dashed=0;verticalLabelPosition=bottom;verticalAlign=top;align=center;html=1;shape=mxgraph.aws3.rds;fillColor=#2E73B8;gradientColor=none;" vertex="1" parent="1">
          <mxGeometry x="513.74" y="190" width="40" height="50" as="geometry" />
        </mxCell>
        <mxCell id="JU4nquK_jm7ar9zYCTRF-60" style="edgeStyle=orthogonalEdgeStyle;rounded=0;orthogonalLoop=1;jettySize=auto;html=1;exitX=0.5;exitY=1;exitDx=0;exitDy=0;entryX=0.5;entryY=0;entryDx=0;entryDy=0;" edge="1" parent="1" source="5G9Hfgs1YEClRX-4D4DC-2" target="JU4nquK_jm7ar9zYCTRF-52">
          <mxGeometry relative="1" as="geometry" />
        </mxCell>
        <mxCell id="5G9Hfgs1YEClRX-4D4DC-2" value="EC2 Instance" style="rounded=1;whiteSpace=wrap;html=1;verticalAlign=top;labelBackgroundColor=none;fillColor=#dae8fc;strokeColor=#6c8ebf;" parent="1" vertex="1">
          <mxGeometry x="222" y="145" width="230" height="75" as="geometry" />
        </mxCell>
        <mxCell id="JU4nquK_jm7ar9zYCTRF-62" style="edgeStyle=orthogonalEdgeStyle;rounded=0;orthogonalLoop=1;jettySize=auto;html=1;exitX=1;exitY=0.5;exitDx=0;exitDy=0;entryX=0;entryY=0.5;entryDx=0;entryDy=0;" edge="1" parent="1" source="5G9Hfgs1YEClRX-4D4DC-23" target="JU4nquK_jm7ar9zYCTRF-61">
          <mxGeometry relative="1" as="geometry" />
        </mxCell>
        <mxCell id="5G9Hfgs1YEClRX-4D4DC-23" value="MyGeotabAPIAdapter" style="rounded=1;whiteSpace=wrap;html=1;pointerEvents=0;align=center;verticalAlign=middle;fontFamily=Helvetica;fontSize=12;" parent="1" vertex="1">
          <mxGeometry x="260.25" y="170" width="153.5" height="30" as="geometry" />
        </mxCell>
        <mxCell id="JU4nquK_jm7ar9zYCTRF-58" value="Postgres RDS Instance" style="text;html=1;align=center;verticalAlign=middle;whiteSpace=wrap;rounded=0;" vertex="1" parent="1">
          <mxGeometry x="494.32000000000005" y="240" width="78.84" height="30" as="geometry" />
        </mxCell>
        <mxCell id="JU4nquK_jm7ar9zYCTRF-59" style="edgeStyle=orthogonalEdgeStyle;rounded=0;orthogonalLoop=1;jettySize=auto;html=1;exitX=1;exitY=0.5;exitDx=0;exitDy=0;entryX=0;entryY=0.5;entryDx=0;entryDy=0;entryPerimeter=0;startArrow=none;startFill=0;" edge="1" parent="1" source="5G9Hfgs1YEClRX-4D4DC-23" target="JU4nquK_jm7ar9zYCTRF-55">
          <mxGeometry relative="1" as="geometry" />
        </mxCell>
        <mxCell id="JU4nquK_jm7ar9zYCTRF-61" value="" style="shape=image;verticalLabelPosition=bottom;labelBackgroundColor=default;verticalAlign=top;aspect=fixed;imageAspect=0;image=data:image/png,iVBORw0KGgoAAAANSUhEUgAAAOEAAADhCAYAAAA+s9J6AAAU+0lEQVR4Xu2dC3QX1Z3Hv4S8n5AQQggh+SfyjMjDIlJlPbhS11DB+gAWXLVuYCtbClQBeRloeUjZiki39bCsYFu6AsICB7Yt2VN1oUtxEVdXSIADCQTygLzfDwg79w+DIYbk/mf+w/0z851zcg6P+8rn/j5zZ+69M9PFNeKFa+BBAiSgjEAXSqiMPSsmATcBSshAIAHFBCih4g5g9SRACRkDJKCYACVU3AGsngQoIWOABBQToISKO4DVkwAlZAyQgGIClFBxB7B6EqCEjAESUEyAEiruAFZPApSQMUACiglQQsUdwOpJgBIyBkhAMQFKqLgDWD0JUELGAAkoJkAJFXcAqycBSsgYIAHFBCih4g5g9SRACRkDJKCYACVU3AGsngQoIWOABBQToISKO4DVkwAlZAyQgGIClFBxB7B6EqCEjAESUEyAEiruAFZPApSQMUACiglQQsUdwOpJgBIyBkhAMQFKqLgDWD0JUELGAAkoJkAJFXcAqycBSsgYIAHFBCih4g5g9SRACRkDJKCYACVU3AGsngQoIWOABBQToISKO4DVkwAlZAyQgGIClFBxB7B6EqCEjAESUEyAEiruAFZPApSQMUACiglQQsUdwOpJgBIyBkhAMQFKqLgDWD0JUELGAAkoJkAJFXcAqycBSsgYIAHFBCih4g5g9SRACRkDJKCYACVU3AGsngQoIWOABBQToISKO4DVkwAlZAyQgGIClFBxB7B6EqCEjAESUEyAEiruAFZPApSQMUACiglQQsUdwOpJgBIyBkhAMQFKqLgDWD0JUELGAAkoJkAJFXcAqycBSngHY+DK1RaIH3E0X72GlmtA45UWNLW0INDP72ZLgvy//rP+j0H+XUy3tPGKVmGbQ9Tf+hBtEYdoj2iHn1ZtQNfrdft39XP/8PAuAUroJZ66YK3lqm2+CjRpPw3aT6Af+rti0S+pB8LCQ5GcEIOw0GAkJ/VGsPZ/gYHBCAsLdrcmNDQEEVoa/fDTAj8+LsZ0SwuLS9Fy4ySgF1Z8qfRmuc3NV1BTU+P+e0lZDUpKK1Bb14C8i6W4ov0u2WcKcb5Y+7eiWiDMX7NSE1L7CQvoelPYkMCuFNXDnqKEHgITyXXhxMhSVt8M1DShf784t2C94rpjaFoqoiLDNHGiER8fi74JcYiMCDFQk+9myb94GYXFZSgpKUNBQREul9ehSJP8RE4ejp8pRuHlOgSEBSAqyN89knIUvX1fUkKJOG8tXXXTFQxP6YmBqfFIdfXGfWn34P7hA7XRKxjBQQHu0c3Jhxg5GxqbUVlRiaOfZyPn9AUcP30R/5dzAdkXStEjNAAcLW+NEErYgTFCvrLaZvSMDMLgfgl4/NFv4ZGHhqF7twgkJsQ62TWPfnchZll5NXJO5WHb7o/x35+dcV/WRmsjJe8xAUrYTjhV1jVrQVOPB4YkYOHsye6RjtJ55F2Hiauq6/GHrENYunYHThWWI7FbsKNlpIStwkXIJ2YLF898Ek8+8RDuHZjsvchjSe0S2L4rC3Myt7j/LzhQm+xx4EEJtU5v0O7zSjQB5z4/FvPnPI+Y7hEODAV1v7KY5Jk6fQVy8i4jIiRAXUMU1ex4Cau12c3+SbH42bLpeGjUvYq6gdWWaveML76yGke+zHOciI6W8FJVIx7/9iC8vWom7/l84DwgRHxq2hKcyS9x1KWpYyUUAk5Jvx+b1s+7Y+EngkwsmNfVNaKysgr64nhDUwvyzhW426Evjrdu1AXtcq28utHjdg7SllH8tYX0toe+UUD8e0BgIFKTerqTtN4wENczBuGhgYjqFnVHL8+/PH4W335qkXtG2imHIyUUl6Cj7kvGvg9Web2fhWgXCy5D7EQ5+r+nkHMyD2fPX8K5gjL3In/rHTWicn3Lmr5VrfU2Mb1xRqfx9S1ybX9JvQ36v4u1T7eEbbbO6W0R9YeHhyGlTzTSBiQibVCKtkaagKiocLj69vL62ugvN/075qz+N/TpZq8NDrcLNsdJKCZhUhN7YPfWFV45w4uRK/d8ET76r2M49OkJbUQrQn5ROQqrmxCtTTKIPZ+6REZl8vqZwsMCdZn1k0h9cwvEljxXTKjGMgYjhvbDhPQxGDbkHq8IKZgOGfMP7pPW3crME8SOk1AsQ+zdssj0JIwIlJ17P8H23Z9g/6GTiI4IuimcEwJHBJkuZ722P7ZEu7wf//AArFqaoe0iSvEkBttNK0bD+Wu2OeKy1FESivvA+RmP440F3zcVJH8+8hWmv/oL9zas+IhAR00idAROXGUUFtZg/+9eR/p3RptiLJYthj02G1HaNje7H46RUJy1xX3NX36/ztRmanGG/sf5W5DYN9IRl0qeCiA45xfV4NCen5q+2vjulEU4dvyc7U9yjpHwQkU9Nq38e7ww5XFP4+pmejECPvxMJlxx4YbLcEJGMSKmpcZh529Wmjrh/fqDPyJj8b/afoLGMRKKS9GCY5sNB4WY9UyftFB7RKeSI6DEmUSc9Lavn4WnvjtGInX7ScRyxV8/t8T2i/eOkFAsSbz83BisWf6K4YDYsHEXXl3zge3PyoYBtcmoj4ZZu98yXKS4L3z2peW2P/E5QkIxCv5p23I8MGKAoYDgKOg5Nn15Ye/W5aY2wjvhvtD2EopgCAkJwcnDGz2PpBs5du87iO/98B33uhgPeQLiknT/pnkYN3akfKY2KV/8wUpk/fmErSdnbC+huBSdOuFBrH/zR4YDYXLGChw8km3rQDAMp4OMYk122dxnMWvG04aLn7NwA7buOWzr+0LbS5hbWocDm+cbPhuLS9ExT87TXoBUywkZD1USJ8CJ44ab2p+7IPNXeG/HQUroIXufS27mvkQsS0x4aZUjFo293XFicmb0iP7Y+X6m4aLFuuzSn++wNX9bj4TifjCpdzT2b3vT8NKEU9aqDFvSQUZ9g8SJQ+8aLl7MSi9b9yElNExQcUZxJh4zahC2bVpiuCUZs9diT9bntr4cMgynk4yUUI6srUdCcU8ybeJovL16lhyNdlKNGvdD269TGYZDCb2CztYSemN2rkv0RLhc3bwC22mFeGMkdMLTFLaWUMyM7t/4Y8M7+sXjSuF9JlNCk2ePkcP7GS5BvFUgv7DM1jPT9pawWNvNv3O54d38YttU36EZcCVxJDRskZZR3JsbPZzw+nx7S3ixCmcOb0CKq4+hGPj02EmMmrCIT00YosdMsgQoYQekKKFsGDGdGQKUkBKaiR/m9QIBSkgJvRBGLMIMAUrYAT0+SW8mtJhXlgAl7IAUH2GSDSOmM0OAElJCM/HDvF4gQAkpoRfCiEWYIUAJKaGZ+GFeLxCghJTQC2HEIswQoISU0Ez8MK8XCFBCSuiFMGIRZghQQkpoJn6Y1wsEKCEl9EIYsQgzBCghJTQTP8zrBQKUsBMJJ83e4HOvvhdPrNc2XkXjlRYvhIBvFyG+YGz3z6NRwg5icNMW7bPNK33rQ5VCwPsGJmLmy08iIMDftw3yQusKi8swc+lmW38slBLeZRKKp9THPTQY77+72Ash7vtFuN9ucP8MuBIifb+xBltICe9SCX/51qte+T68wbi5Y9nO5l5A6uhZlPCOEfdyRbkmX2/hi5ej+khICb0cLAqL40jIkVBh+HVeNUfCzhn5dAqOhD7dPVKNo4RSmHw3ESX03b6RbRkllCXlo+kooY92jAfNooQewPLFpHaW0ClLFJTQF83yoE12lFAs1g9IjsX0F57wgITapAkJ8Ybfgk4J1fad6drtKKGAIkQsq21GU4vvb1trrmzE7OmPGf4yFiU0rYHaAuwqoVqqntUuPk/38nNjsGb5K55lvJGaEhrC5juZKKH6vqCEnfcBF+s7YCQ+lW33zcOdh4i5FJSwc372llD7PuGBzfMxbuzIzkm0k4Iv/zWE7ZZMlLBzhraX0MxHQilh5wHUWQrxteTZL43DGwu+31nSdv+f94SGsPlOpktVjfjZgsmYmfE9Q42ihIaw3ZJJ9MHbiycj4yVjffBVTh6GPPpjuOIjzDfGR0uw9UgozsKvzRiPhXOnGcLv/iDM5OVwxYQays9MgFkJ/+PAYYyf8Zat+8DWEor7kakTHsT6N39kyAd+JNQQNq+OhOJqxBdfMWKezNcl2FpC8ezd6BH9sfP9TEPMSsur0aPf8/xmvSF61zNdqKjHb9dOx6SnxxkqZcPGXVi27kNbv2fG1hKKnSVJvaOxf9ubiIwIMRQEXaInwuXqZigvMwG52gy1mcmxn6zZjPVbsijh3RpMQsLw8DDs+80SpLj6GPo1Bj/8A9TU1MK/q5+h/E7PlFtcgyN7V+GBEQMMociYvRZ7sj5HREiAofx3QyZbj4T65dChHT81HARzFm7A1j2HbR0EVgZq7rkKnP9iExITYg1V88yLy3H42CkEB9r3zXK2l9AbyxR2nxgwZIdkptzcClwr2yOZ+tZk4p78qWlLcK6gzNZXIraX0OwrAsU6VfqUpbYOAkOGSGQS7NNS45C1+y2J1N9MIhbqn5j6E9TX19uav+0lFPeF4n7u7GfvGwoEkWlM+mzbn40Nw+kgo9mrELFE9OjkTFu/+Ffgs72E4pcUi/YffbgC96WlGIo1MU2+cO122weDITgdZBLcf7810/D9+PZdWXh+3r/43GcIvM3JERKaPSOLt0A/MuE198O0nCWVC0F9Zvp/Drxt+CXFkzNW4OCRbFtPyjhmJNQD4sShd+UiqJ1Uq9dtReYv9tj+rGwYUJuM4sS3et4kzJrxtOEiU+5/0REnPkeMhCIKcgur8UXWPxm+JBUzdemTFiK/qNz2Z2bD1tzIqF8x/OeHKw2vz355/CzGPrvE1ov0OmfHSGj2kRoBTN/QndgtmJelHZgqtqr9fMEUU6OgL36CwOzJ6Xb5HSOhACAukbI/3mB44ViU4d7V/8wqxCdHckRsJ6rEyW700GRse+8Nw/eColgnzUg7SkIRIBmTjL90SI85sXb4+rKN2P9xNnpEhyAksKvjR0axJlhY3oBJfzMc773zmikBxaXo0EfmOmbjvKMkFBKJ+5V9W5cbvjdsffIXl6c7dn+EAwePIzvvMqIjghDk3+WmkHaeSRUcxU/jlWso0x4ZG/9gP7wwaazhpyVac12Q+Su8t+OgY7YKOk5C8YzhX40cYPjxpvau68WkzZncAhw5ehxHj2WjoKgUF0vqcLmsCiXa6BsW0BUhAX4I6Hr3CSpE009eunA9QgMQGx2JQanx+NawezD+O6OR6uptavTTuYpdMiPT5ztiQsZxEzOt5TH7xH1nN+i1dQ0oLi5BTV0TqmvqkJ19Gl+dvIB8bQ9k0aUy5BeW3Qzs5qvX0HLteon6N+hbv9Q30M9PG12/+QSHXxe4pfbkaF2Xnq9au4zUD1GXOER9evliNI+PjUJyUi8MS3NhqLbhoU9CHLp3izB1b327ds9+/R38bu9fHDMKCg6OGwn1zs89VYb9OxchXTuLqziEqA2NzSgsLkWLNtoIWevq6t1NKS+vuNmkhqYW5J0r+EYTxehbVFLlUdN79YhETPev39USEBiI1KSeN8vo3v36c5NxPWMQHhqIqG5Rt6T3qDIDiZ36Th/HSihixOwDpwbijFluQ0BMdk2YlumIxfm2CBwtof5NB7M7O2iWOQJiW+Bjzy7WrgZqHbns42gJ9dAR64fjH7kXi+dO9cqsqbmQdFZu8aTErAUbHL0TiRLeiHn3OldpPeZPH4e/+9sncO/AZGfZcId/26rqevzzpl1YtH43nL4DiRK2CT6xhFFyqRYPDE/Eq69MxOhRwyyZBbzDMe8z1YmF+N37PkHmur2I7h7iqKWI23UCJbwNGf1+sWdkEAb3S0D6YyPx8OihSOgde0dnDH3GHoMNEfd75RXV2K9t9/vTJ5/hpLapobbxKuVrxZMSdhJc+s6Qqoar7o9yDk/piSGDk5Ca3Nu9ZjYk7R5ERYajq7ZmFxYabDBU7/5s+pJLZUUlck7n4+jnOe4NDDlnCvHp6WJEa29LCwvi9r72epoSehj/bbdroaoJgwbHI6VPNNIGJLoXsqMiwxAfF434+Fi4+vaylZxiZCssLkNJifaj7Qi6WFiCM3kFKCoux5c5+ci/oK1dhge6pdO38Nl5+56H4dNuckroBYq6mPqOFLELpVm75HJvhdFGUIT6Y5D2nXkhalh4KJITYtxiDux3/V2o4eHhCAi4/kq/0NAQRGhp9MNP7FiJizHVyjptY4C4JGx9iI0ClZVfL/brGwRabw744sR5d5ZsbTSrqKxGYZ6WPkjbVROstVXbVSO247XdXUPhPO8qSug5M0M5dFFF5tayir/r28XEn9vboiZGFDNHe9vVRHn6NjnxZ32rXOttcnq9ulgUzEwv3D4vJbSGK0slAWkClFAaFROSgDUEKKE1XFkqCUgToITSqJiQBKwhQAmt4cpSSUCaACWURsWEJGANAUpoDVeWSgLSBCihNComJAFrCFBCa7iyVBKQJkAJpVExIQlYQ4ASWsOVpZKANAFKKI2KCUnAGgKU0BquLJUEpAlQQmlUTEgC1hCghNZwZakkIE2AEkqjYkISsIYAJbSGK0slAWkClFAaFROSgDUEKKE1XFkqCUgToITSqJiQBKwhQAmt4cpSSUCaACWURsWEJGANAUpoDVeWSgLSBCihNComJAFrCFBCa7iyVBKQJkAJpVExIQlYQ4ASWsOVpZKANAFKKI2KCUnAGgKU0BquLJUEpAlQQmlUTEgC1hCghNZwZakkIE2AEkqjYkISsIYAJbSGK0slAWkClFAaFROSgDUEKKE1XFkqCUgToITSqJiQBKwhQAmt4cpSSUCaACWURsWEJGANAUpoDVeWSgLSBCihNComJAFrCFBCa7iyVBKQJkAJpVExIQlYQ4ASWsOVpZKANAFKKI2KCUnAGgKU0BquLJUEpAlQQmlUTEgC1hCghNZwZakkIE2AEkqjYkISsIYAJbSGK0slAWkClFAaFROSgDUEKKE1XFkqCUgToITSqJiQBKwhQAmt4cpSSUCaACWURsWEJGANAUpoDVeWSgLSBCihNComJAFrCFBCa7iyVBKQJkAJpVExIQlYQ4ASWsOVpZKANAFKKI2KCUnAGgKU0BquLJUEpAlQQmlUTEgC1hCghNZwZakkIE2AEkqjYkISsIYAJbSGK0slAWkClFAaFROSgDUE/h+kpwMZZ7Ri+QAAAABJRU5ErkJggg==;" vertex="1" parent="1">
          <mxGeometry x="622" y="93.84" width="51.16" height="51.16" as="geometry" />
        </mxCell>
        <mxCell id="JU4nquK_jm7ar9zYCTRF-63" value="Geotab Gov" style="text;html=1;align=center;verticalAlign=middle;whiteSpace=wrap;rounded=0;" vertex="1" parent="1">
          <mxGeometry x="617.58" y="145" width="60" height="30" as="geometry" />
        </mxCell>
      </root>
    </mxGraphModel>
  </diagram>
</mxfile>
